<svg width="15" height="15" viewBox="0 0 15 15" fill="none" xmlns="http://www.w3.org/2000/svg">
<path d="M1 2.71222C1 2.3013 1.16324 1.90721 1.4538 1.61664C1.74437 1.32608 2.13846 1.16284 2.54938 1.16284H11.8456C12.2566 1.16284 12.6506 1.32608 12.9412 1.61664C13.2318 1.90721 13.395 2.3013 13.395 2.71222V4.2616C13.395 4.67252 13.2318 5.06661 12.9412 5.35717C12.6506 5.64773 12.2566 5.81097 11.8456 5.81097H2.54938C2.13846 5.81097 1.74437 5.64773 1.4538 5.35717C1.16324 5.06661 1 4.67252 1 4.2616V2.71222Z" stroke="#818898" stroke-width="1.6" stroke-linecap="round" stroke-linejoin="round"/>
<path d="M1 10.4591C1 10.0482 1.16324 9.65409 1.4538 9.36353C1.74437 9.07296 2.13846 8.90973 2.54938 8.90973H11.8456C12.2566 8.90973 12.6506 9.07296 12.9412 9.36353C13.2318 9.65409 13.395 10.0482 13.395 10.4591V12.0085C13.395 12.4194 13.2318 12.8135 12.9412 13.1041C12.6506 13.3946 12.2566 13.5579 11.8456 13.5579H2.54938C2.13846 13.5579 1.74437 13.3946 1.4538 13.1041C1.16324 12.8135 1 12.4194 1 12.0085V10.4591Z" stroke="#818898" stroke-width="1.6" stroke-linecap="round" stroke-linejoin="round"/>
</svg>
