<svg width="36" height="36" viewBox="0 0 36 36" fill="none" xmlns="http://www.w3.org/2000/svg">
<path d="M30.8698 4.56115H29.0958C30.217 6.48545 30.8698 8.71255 30.8698 11.0934C30.8698 18.2973 24.9887 24.158 17.7598 24.158C10.5308 24.158 4.64979 18.2973 4.64979 11.0934C4.64979 8.71255 5.30255 6.48545 6.42373 4.56115H4.64979C2.24014 4.56115 0.279785 6.51471 0.279785 8.916V30.6903C0.279785 33.0915 2.24014 35.0451 4.64979 35.0451H30.8698C33.2794 35.0451 35.2398 33.0915 35.2398 30.6903V8.916C35.2398 6.51471 33.2794 4.56115 30.8698 4.56115ZM17.7598 21.9806C23.7938 21.9806 28.6848 17.1065 28.6848 11.0934C28.6848 5.08033 23.7938 0.206299 17.7598 0.206299C11.7258 0.206299 6.83478 5.08033 6.83478 11.0934C6.83478 17.1065 11.7258 21.9806 17.7598 21.9806ZM17.7393 11.6419L20.0322 6.3099C20.2712 5.75397 20.9157 5.4988 21.4681 5.73764C22.0226 5.97444 22.2793 6.61473 22.0424 7.16658L19.7434 12.5115C20.1995 12.9987 20.491 13.6417 20.491 14.3596C20.491 15.8627 19.2681 17.0813 17.7598 17.0813C16.2515 17.0813 15.0285 15.8627 15.0285 14.3596C15.0285 12.8639 16.2412 11.6534 17.7393 11.6419Z" fill="#69CD01"/>
</svg>
