<svg width="42" height="35" viewBox="0 0 42 35" fill="none" xmlns="http://www.w3.org/2000/svg">
<path d="M25.7083 32.4137C25.2099 31.9152 24.9356 31.2534 24.9359 30.5504L24.9362 28.8378L23.2327 28.8381C22.5295 28.8381 21.8679 28.5635 21.3698 28.0654C20.8717 27.5669 20.5974 26.9053 20.5977 26.2025L20.5982 21.3997C20.5988 19.947 21.7808 18.7649 23.2333 18.7644L24.9377 18.7638L24.938 17.0507C24.938 15.5976 26.12 14.4154 27.5733 14.4149L32.3584 14.4144H32.3587C33.8117 14.4144 34.9937 15.5965 34.9937 17.0501L34.9932 18.7622L36.6961 18.7619C37.3993 18.7619 38.0609 19.0365 38.559 19.5346C38.649 19.6248 38.7294 19.7221 38.8045 19.8224C40.4269 16.9937 41.2526 14.1276 41.2526 11.2842C41.2526 5.06198 36.1905 0 29.9686 0C27.1814 0 24.4824 1.72844 21.9464 5.13755C21.4461 5.80995 21.0034 6.48069 20.6263 7.0967C20.2489 6.48055 19.8065 5.80981 19.3062 5.13755C16.7702 1.72858 14.0713 0 11.284 0C5.06185 0 0 5.06212 0 11.2842C0 14.5081 1.05562 17.7625 3.13742 20.9572C4.73905 23.4145 6.95405 25.8457 9.72061 28.1827C14.3606 32.1023 18.9445 34.413 19.1375 34.5091C19.6876 34.7843 20.2509 34.8423 20.6263 34.8423C21.0017 34.8423 21.565 34.7843 22.1154 34.5091C22.2218 34.4559 23.6675 33.7273 25.7219 32.4258C25.7175 32.4215 25.7126 32.418 25.7083 32.4137Z" fill="#69CD01"/>
<path d="M32.3589 16.3346L27.5737 16.3353C27.1923 16.3354 26.88 16.6475 26.88 17.0289L26.8792 19.9901C26.8792 20.3715 26.5672 20.6838 26.1855 20.6839L23.234 20.6847C22.8526 20.6849 22.5406 20.9971 22.5403 21.3785L22.54 26.1809C22.5398 26.5622 22.8517 26.8743 23.2329 26.8743L26.185 26.8737C26.5664 26.8737 26.8784 27.1856 26.8784 27.5671L26.8778 30.5288C26.8775 30.9104 27.1898 31.2222 27.5712 31.2222L32.3552 31.2211C32.7367 31.2211 33.0489 30.9088 33.0489 30.5274L33.0497 27.566C33.0497 27.1844 33.362 26.8723 33.7434 26.8722L36.695 26.8712C37.0767 26.8711 37.3886 26.5588 37.3886 26.1774L37.3892 21.3755C37.3892 20.9942 37.0775 20.6821 36.6961 20.6821L33.7442 20.6828C33.3628 20.6828 33.0508 20.3708 33.0508 19.9894L33.0517 17.028C33.0517 16.6467 32.74 16.3346 32.3589 16.3346Z" fill="#69CD01"/>
</svg>
