<svg width="40" height="40" viewBox="0 0 40 40" fill="none" xmlns="http://www.w3.org/2000/svg">
<g clip-path="url(#clip0_4041_2379)">
<path d="M37.9121 26.7313C37.7812 26.5828 34.7162 23.9009 33.5342 23.0801C31.8679 21.6212 30.442 20.1259 29.2567 18.5975C29.2535 18.5847 29.2548 18.5716 29.25 18.5591C28.6861 17.1351 29.1466 14.6686 29.6333 12.0567C30.3389 8.27366 31.1386 3.98564 28.9527 1.67491C27.5575 0.200984 25.1629 -0.293418 21.6333 0.164824C10.3504 1.62819 2.15099 13.9937 1.57211 24.6254C1.14651 32.4242 4.67388 37.8111 11.2493 39.4056C12.8848 39.8021 14.4128 40.0002 15.8301 39.9999C18.5968 39.9999 20.9418 39.2453 22.8311 37.7407C27.1175 34.3278 27.7719 28.148 27.8698 26.0712C29.3297 26.2488 30.7949 26.7921 32.2404 27.7067C32.9662 28.1656 34.3716 29.3838 34.6574 29.6443C35.0721 30.0942 35.6583 30.3304 36.2718 30.3304H36.2721C36.8071 30.3304 37.3227 30.1569 37.723 29.8024C38.1614 29.4145 38.4228 28.8904 38.4587 28.3057C38.4942 27.7217 38.3003 27.1694 37.9121 26.7313ZM37.209 28.2302C37.1931 28.4801 37.0811 28.6981 36.8932 28.8641C36.7217 29.0168 36.5006 29.0782 36.2721 29.0782H36.2718C36.0039 29.0782 35.7476 28.9861 35.5623 28.7777C35.5162 28.7288 33.834 27.2219 32.9098 26.6376C30.9172 25.3771 28.8721 24.7435 26.8311 24.7435C26.6928 24.7435 26.553 24.7496 26.4122 24.7553C22.5956 24.9227 18.9085 27.3502 15.4522 31.9666C15.273 32.2056 14.9984 32.3438 14.6989 32.3438C14.4954 32.3438 14.3008 32.2795 14.1376 32.1573C13.7232 31.8465 13.6381 31.2571 13.9482 30.8424C16.9546 26.827 20.2061 24.3003 23.6119 23.331C23.89 23.252 24.0775 22.9924 24.066 22.7041C24.0551 22.4152 23.8471 22.172 23.5636 22.115C22.1792 21.8375 20.7447 21.6967 19.3011 21.6967C16.3469 21.6967 13.2486 22.2843 10.0937 23.443C9.61566 23.6193 9.06174 23.3569 8.88798 22.8852C8.80158 22.65 8.81214 22.3947 8.91742 22.1672C9.0227 21.9393 9.21086 21.7665 9.44638 21.6801C13.3395 20.2497 17.1619 19.6395 20.7946 19.8718C21.0823 19.8916 21.3466 19.7089 21.432 19.4327C21.5178 19.1569 21.4032 18.8577 21.1559 18.7095C18.6813 17.2305 16.1274 15.8052 13.5629 14.4734C13.1037 14.2346 12.9238 13.6666 13.1626 13.2068C13.3245 12.8945 13.6451 12.7002 13.9978 12.7002C14.1482 12.7002 14.2934 12.7361 14.4288 12.8062C17.5882 14.4471 20.7123 16.2174 23.7152 18.0667C23.9588 18.2164 24.2724 18.1822 24.4778 17.9847C24.6832 17.7873 24.7296 17.475 24.5898 17.2267C22.6416 13.7658 21.7015 10.1281 21.7946 6.41605C21.8074 5.90277 22.2263 5.50085 22.7568 5.50085C23.0074 5.50725 23.2407 5.61061 23.4138 5.79237C23.5866 5.97381 23.6784 6.21221 23.6724 6.46309C23.5159 12.7367 26.5664 18.6529 32.7377 24.0465C32.7559 24.0625 32.7754 24.0772 32.7956 24.0913C33.898 24.8481 36.7175 27.3253 36.9895 27.5781C37.1457 27.7633 37.2241 27.987 37.209 28.2302Z" fill="#69CD01"/>
</g>
<defs>
<clipPath id="clip0_4041_2379">
<rect width="40" height="40" fill="white"/>
</clipPath>
</defs>
</svg>
