<svg width="50" height="31" viewBox="0 0 50 31" fill="none" xmlns="http://www.w3.org/2000/svg">
<path d="M46.7481 13.6559V8.73887C46.7481 6.31338 44.7745 4.34004 42.3482 4.34004C41.5362 4.34004 40.7754 4.56201 40.1218 4.94697V4.40098C40.1218 1.97422 38.1478 0 35.7214 0C33.295 0 31.321 1.97422 31.321 4.40098V13.6566H18.6787V4.40098C18.6787 1.97422 16.7046 0 14.2782 0C11.8519 0 9.87783 1.97422 9.87783 4.40098V4.94697C9.22412 4.56201 8.46338 4.34004 7.65137 4.34004C5.22529 4.34004 3.25146 6.31328 3.25146 8.73887V13.6566H0V16.9175H3.25137V21.8332C3.25137 24.26 5.225 26.2342 7.65127 26.2342C8.46328 26.2342 9.22412 26.0122 9.87773 25.627V26.1723C9.87773 28.599 11.8518 30.5732 14.2781 30.5732C16.7045 30.5732 18.6786 28.599 18.6786 26.1723V16.9176H31.3209V26.1723C31.3209 28.599 33.2949 30.5732 35.7213 30.5732C38.1477 30.5732 40.1217 28.599 40.1217 26.1723V25.627C40.7754 26.0123 41.5361 26.2342 42.3481 26.2342C44.7742 26.2342 46.748 24.26 46.748 21.8332V16.9167L49.999 16.9175L50 13.6566L46.7481 13.6559Z" fill="#6EC207"/>
</svg>
