<svg width="39" height="38" viewBox="0 0 39 38" fill="none" xmlns="http://www.w3.org/2000/svg">
<path fill-rule="evenodd" clip-rule="evenodd" d="M32.9414 22.1682C30.6488 25.953 27.2539 30.035 22.7566 34.4143L21.4149 35.6989C21.186 35.9144 20.9546 36.1306 20.7206 36.3475L19.2852 37.6573C18.552 36.9981 17.8421 36.3454 17.1556 35.6989L15.8139 34.4143C11.3166 30.035 7.92165 25.953 5.62909 22.1682L10.2106 22.1682C12.2421 25.078 14.9966 28.2437 18.4908 31.6449L19.2852 32.4084L19.4184 32.2829C23.2281 28.6389 26.2019 25.2592 28.3599 22.1682L32.9414 22.1682ZM13.5413 6.22217L19.2852 17.8371L22.1572 12.0306L24.2978 16.3599H38.4318V20.2321H22.3832L19.2852 26.4976L13.5413 14.8807L10.8953 20.2321H0.138672V16.3599H8.52678L13.5413 6.22217ZM26.178 0.87085C31.8882 0.87085 36.5172 5.55182 36.5172 11.3259C36.5172 12.3287 36.4066 13.3613 36.1855 14.4236L32.2505 14.4237C32.5046 13.475 32.6476 12.5698 32.6805 11.7091L32.6878 11.3259C32.6878 7.69038 29.7733 4.7431 26.178 4.7431C24.6988 4.7431 23.3052 5.23963 22.1741 6.13668L21.8428 6.41772L19.2883 8.73338L16.7324 6.41925C15.5452 5.34438 14.0202 4.7431 12.3925 4.7431C8.79719 4.7431 5.88264 7.69034 5.88264 11.3259C5.88264 12.2999 6.02789 13.3332 6.31997 14.4237L2.38496 14.4236C2.16387 13.3613 2.05333 12.3287 2.05333 11.3259C2.05333 5.55175 6.68232 0.87085 12.3925 0.87085C15.0412 0.87085 17.4574 1.87806 19.2867 3.5344C21.1146 1.87743 23.5301 0.87085 26.178 0.87085Z" fill="#69CD01"/>
</svg>
