<svg width="44" height="30" viewBox="0 0 44 30" fill="none" xmlns="http://www.w3.org/2000/svg">
<path d="M42.1568 20.5092C42.1581 22.2046 40.7576 23.5379 38.9735 23.5394C37.1895 23.5409 35.7865 22.2098 35.7852 20.5144C35.7838 18.819 38.9665 15.0623 38.9665 15.0623C38.9665 15.0623 42.1555 18.9349 42.1568 20.5092Z" fill="#69CD01"/>
<path fill-rule="evenodd" clip-rule="evenodd" d="M22.1316 8.48893L40.9481 8.47346C42.1962 8.47251 43.2088 9.48129 43.2099 10.7267C43.2108 11.9721 42.1999 12.9824 40.9518 12.9835H40.9464C41.0376 12.806 41.0875 12.6133 41.0874 12.4118C41.0867 11.534 40.1352 10.8231 38.9622 10.8241C37.7892 10.825 36.8389 11.5374 36.8397 12.4153C36.8398 12.6168 36.89 12.8094 36.9815 12.9868L23.1529 12.998L23.1539 14.1256L30.4694 14.1195C31.6423 14.1186 32.5941 15.0666 32.595 16.2371L32.5952 16.5085C32.5962 17.679 31.6461 18.6286 30.4732 18.6296L23.1576 18.6355L23.1586 19.7631L29.2941 19.758C30.4671 19.757 31.4188 20.7051 31.4198 21.8756L31.42 22.147C31.4209 23.3174 30.4708 24.2671 29.2978 24.268L20.8023 24.2749L20.8033 25.4025L25.169 25.3989C26.342 25.3979 27.2936 26.346 27.2946 27.5164L27.2948 27.7878C27.2957 28.9583 26.3456 29.9079 25.1727 29.9089L17.2672 29.9154L12.914 29.9189C6.19502 29.9244 0.743786 24.4938 0.738285 17.7894C0.734229 12.8572 3.7212 8.41285 8.29574 6.5446L21.9763 0.957341C23.0102 0.535075 24.1995 0.86388 24.8682 1.75694C25.803 3.00541 25.3449 4.7962 23.9246 5.4447L21.6888 6.46566C20.6512 6.93953 20.9905 8.48978 22.1316 8.48893Z" fill="#69CD01"/>
</svg>
