<svg width="42" height="28" viewBox="0 0 42 28" fill="none" xmlns="http://www.w3.org/2000/svg">
<path d="M11.7674 0.000295587C5.28074 -0.0392219 1.44676 3.8905 0.902656 7.65589C-0.296534 16.7545 -1.25427 24.8552 4.60825 27.3789C6.45651 28.1745 16.7672 19.0111 24.0388 17C24.9315 11.4504 24.8842 8.70502 24.3443 3.32194C24.3443 3.32194 24.0618 1.68553 22.8139 1.41222C20.2378 0.848006 15.7794 -0.0113682 11.7674 0.000382582L11.7674 0.000295587ZM35.0893 0.897969C32.4484 0.890048 29.3563 1.20784 26.7883 1.72488C26.2062 1.84212 25.8607 3.05689 25.9251 3.38078C26.43 8.53494 26.4912 10.9996 25.7167 16.3925C40.164 10.3645 41.42 6.25955 41.2565 4.48884C40.9983 1.69015 38.3715 0.907892 35.0893 0.897969ZM23.1291 18.8171C19.7033 20.0896 16.1697 22.3755 13.2344 24.4348C14.9827 24.9523 18.1674 25.0126 19.7212 24.1391C21.3124 22.7605 22.7209 20.8843 23.129 18.8171H23.1291Z" fill="#69CD01"/>
</svg>
