<svg width="549" height="440" viewBox="0 0 549 440" fill="none" xmlns="http://www.w3.org/2000/svg">
<path d="M142.782 162.592C163.521 141.852 163.521 108.228 142.782 87.4885C122.043 66.7493 88.4182 66.7493 67.679 87.4885C46.9398 108.228 46.9398 141.852 67.679 162.592C88.4182 183.331 122.043 183.331 142.782 162.592Z" fill="#353535"/>
<path d="M137.775 157.585C155.749 139.611 155.749 110.469 137.775 92.4955C119.801 74.5215 90.6599 74.5215 72.6859 92.4955C54.7119 110.469 54.7119 139.611 72.6859 157.585C90.6599 175.559 119.801 175.559 137.775 157.585Z" fill="#F7F7F7"/>
<g opacity="0.07">
<path d="M136.819 91.8623C143.616 99.8836 147.718 110.261 147.718 121.599C147.718 147.018 127.111 167.624 101.692 167.624C89.4621 167.624 78.3477 162.853 70.1055 155.072C78.5478 165.036 91.1507 171.362 105.233 171.362C130.652 171.362 151.258 150.755 151.258 125.336C151.258 112.146 145.709 100.254 136.819 91.8623Z" fill="#394860"/>
</g>
<path d="M101.964 125.189L101.904 126.618C101.88 127.209 102.338 127.707 102.928 127.731L146.611 129.56C147.202 129.585 147.7 129.126 147.724 128.537L147.784 127.108C147.809 126.518 147.35 126.019 146.761 125.995L103.077 124.166C102.487 124.141 101.989 124.599 101.964 125.189Z" fill="#78E209"/>
<path d="M107.002 121.977V99.3723C107.002 98.3945 106.21 97.6023 105.232 97.6023C104.255 97.6023 103.462 98.3945 103.462 99.3723V121.977C102.405 122.59 101.692 123.73 101.692 125.04C101.692 126.996 103.277 128.581 105.233 128.581C107.189 128.581 108.774 126.996 108.774 125.04C108.772 123.73 108.06 122.59 107.002 121.977Z" fill="#292949"/>
<path d="M147.841 172.172C153.011 173.586 157.082 178.371 157.649 183.701C160.474 181.069 161.916 177.028 161.396 173.201C160.876 169.374 158.407 165.865 154.981 164.083C151.775 165.784 149.29 168.794 148.226 172.263L147.841 172.172Z" fill="#8C6654"/>
<path d="M514.186 115.251L496.888 119.207C496.179 118.39 495.093 117.976 494.011 118.223L448.354 128.662C447.272 128.91 446.473 129.755 446.19 130.799L428.892 134.754L433.117 153.233L450.227 149.321C450.902 150.389 452.149 150.977 453.391 150.693L499.047 140.254C500.29 139.97 501.156 138.899 501.3 137.644L518.41 133.731L514.186 115.251Z" fill="#353535"/>
<g opacity="0.12">
<path d="M434.693 133.942L438.805 151.935L445.357 150.437L436.558 133.452L434.693 133.942Z" fill="black"/>
</g>
<path d="M438.679 176.502L431.798 178.076C428.957 178.726 426.128 176.949 425.478 174.108L413.039 119.704C412.389 116.862 414.165 114.033 417.007 113.384L423.888 111.81C426.729 111.16 429.559 112.937 430.208 115.778L442.647 170.182C443.297 173.024 441.52 175.853 438.679 176.502Z" fill="#353535"/>
<path d="M421.626 180.402L414.744 181.976C411.903 182.626 409.074 180.849 408.424 178.008L395.985 123.604C395.335 120.762 397.112 117.933 399.953 117.284L406.834 115.71C409.676 115.06 412.505 116.837 413.154 119.678L425.594 174.082C426.243 176.923 424.466 179.752 421.626 180.402Z" fill="#353535"/>
<path d="M403.551 160.395L401.655 160.236C400.276 160.119 398.998 158.728 398.576 156.882L396.296 146.909C395.874 145.064 396.42 143.254 397.612 142.551L399.25 141.583C400.89 140.614 403.004 142.111 403.585 144.649L406.123 155.749C406.703 158.289 405.448 160.555 403.551 160.395Z" fill="#353535"/>
<path d="M522.543 157.328L526.662 156.386C530.265 155.562 532.519 151.972 531.695 148.368L519.888 96.7271C519.064 93.1232 515.474 90.8697 511.87 91.6935L507.751 92.6353C504.147 93.4591 501.894 97.049 502.718 100.653L514.525 152.294C515.349 155.899 518.939 158.152 522.543 157.328Z" fill="#353535"/>
<path d="M539.596 153.428L543.715 152.486C547.319 151.663 549.573 148.073 548.749 144.469L536.941 92.8276C536.118 89.2238 532.528 86.9703 528.924 87.7941L524.805 88.7359C521.201 89.5597 518.948 93.1496 519.771 96.7534L531.579 148.395C532.403 151.999 535.993 154.252 539.596 153.428Z" fill="#353535"/>
<path d="M545.8 127.871L547.438 126.903C548.63 126.199 549.176 124.39 548.754 122.545L546.474 112.572C546.052 110.726 544.774 109.334 543.395 109.218L541.499 109.058C539.602 108.899 538.347 111.166 538.928 113.704L541.466 124.804C542.046 127.343 544.161 128.839 545.8 127.871Z" fill="#353535"/>
<path d="M87.3927 178.846L89.7801 170.341L86.1896 169.163L83.265 174.624L81.8257 173.279L80.6699 180.806L84.2365 182.535L87.3927 178.846Z" fill="#EFBFA5"/>
<path d="M25.9785 216.794L60.2352 212.389L80.2067 178.126L87.1088 181.919L72.4953 227.598L31.7936 242.409L25.9785 216.794Z" fill="#6B6B6B"/>
<path d="M34.731 303.223V314.963L50.3841 365.834L47.652 421.021L54.4903 422.283L71.9065 356.051L71.3081 337.055L64.0803 298.31L34.731 303.223Z" fill="#BABCBE"/>
<path d="M47.1477 317.123L31.0206 427.467L24.5301 428.108L19.7553 366.038L9.97217 307.34L47.1477 317.123Z" fill="#BABCBE"/>
<path d="M54.6344 421.962L62.1027 429.866L59.9451 433.873L44.5356 426.476L47.3737 420.62L54.6344 421.962Z" fill="#292949"/>
<path d="M31.2869 427.246L40.493 433.034L39.4054 437.452L22.6362 434.14L23.9215 427.761L31.2869 427.246Z" fill="#292949"/>
<path d="M56.3022 185.57C49.9613 186.037 44.0326 180.83 37.7921 182.122C33.7344 182.963 30.5308 186.562 29.2929 190.618C28.716 192.508 28.5114 194.569 29.0764 196.449C29.4432 197.669 30.1192 198.768 30.9152 199.746C31.9795 201.052 33.2812 202.137 34.7255 202.971C33.932 204.25 33.0224 205.457 32.0117 206.572C34.9357 207.692 37.8603 208.812 40.7842 209.931C41.4306 208.251 42.0764 206.571 42.7228 204.89C43.6021 204.842 44.4783 204.716 45.3368 204.494C50.5288 203.147 54.8327 198.6 55.991 193.239C56.5326 190.728 56.4285 188.131 56.3022 185.57Z" fill="#EFBFA5"/>
<path d="M54.7013 187.483L35.0953 185.154L31.2901 200.13L25.7534 195.736L28.6067 171.231L56.2756 170.635L68.2561 177.663L67.7492 184.706L57.0363 191.918L54.7013 187.483Z" fill="#233862"/>
<path d="M47.0908 212.25L23.8033 203.012C23.8033 203.012 12.925 226 3.51685 258.929C-5.8913 291.858 6.55506 337.587 6.55506 337.587C6.55506 337.587 71.4918 324.331 82.1447 322.24L61.1285 256.382L47.0908 212.25Z" fill="#353535"/>
<path d="M499.396 208.345C502.248 208.221 505.101 208.097 507.954 207.973C508.107 205.701 508.08 203.417 507.87 201.15C507.895 201.425 512.461 199.018 512.865 198.472C514.028 196.9 514.163 194.261 514.647 192.391C515.677 188.408 516.646 183.922 514.541 180.387C512.361 176.726 507.644 175.473 503.385 175.362C498.037 175.222 492.065 176.781 489.315 181.37C486.831 185.515 489.965 191.628 490.86 196.011C491.301 198.172 491.974 200.638 493.982 201.551C495.048 202.036 496.342 201.983 497.293 202.665C498.971 203.868 498.593 206.442 499.396 208.345Z" fill="#EFBFA5"/>
<path d="M480.887 173.444C480.569 170.488 480.252 167.532 479.934 164.576C479.816 163.478 479.702 162.339 480.057 161.294C480.647 159.554 482.413 158.468 484.186 157.988C485.958 157.509 487.825 157.49 489.618 157.096C491.532 156.675 493.394 155.821 495.352 155.908C499.076 156.072 501.926 159.526 505.607 160.114C510.703 160.929 515.383 158.594 518.461 164.592C519.026 165.694 519.183 166.962 519.682 168.097C520.325 169.561 521.498 170.716 522.414 172.028C526.444 177.794 525.141 186.546 520.257 191.433C517.888 193.803 516.92 195.946 513.658 196.706C515.152 193.669 513.178 181.57 509.088 180.213C508.005 179.854 504.75 181.179 503.55 181.355C500.892 181.743 498.307 182.17 495.806 183.205C492.095 184.742 488.065 185.831 484.048 186.131C483.534 186.17 482.96 186.189 482.572 185.85C482.207 185.531 482.131 185.001 482.079 184.519C481.681 180.826 481.284 177.135 480.887 173.444Z" fill="#233862"/>
<path d="M544.729 426.438L545.876 431.258L537.385 438.371L531.418 434.699L535.09 428.733L543.582 421.619L544.729 426.438Z" fill="#292949"/>
<path d="M525.239 277.353L528.724 291.99L524.306 360.061L544.864 424.765L535.759 428.952L494.569 354.252L489.677 330.389L487.189 279.939L525.239 277.353Z" fill="#BABCBE"/>
<path d="M468.183 283.157L467.451 346.39L479.367 427.92H488.53L494.317 352.691L506.854 277.462L468.183 283.157Z" fill="#BABCBE"/>
<path d="M488.477 426.829V431.783L478.569 436.737L473.615 431.783L478.569 426.829H488.477Z" fill="#292949"/>
<path d="M536.138 295.252C536.265 301.021 536.084 308.796 533.867 309.081C533.452 309.134 533.054 308.928 532.691 308.73C528.858 306.638 526.146 303.693 522.369 301.671C518.409 299.552 513.88 298.426 509.437 297.638C502.795 296.424 496.005 295.672 489.237 295.553C483.917 295.461 478.571 295.914 473.274 296.354C468.866 296.721 464.764 298.028 460.274 297.717C455.672 297.398 451.138 295.988 447.204 293.57C447.06 293.482 446.907 293.381 446.848 293.223C446.783 293.05 446.846 292.857 446.91 292.684C447.85 290.108 448.525 287.557 450.232 285.423C452.139 283.041 453.493 280.014 454.871 277.302C457.743 271.651 460.448 265.728 462.455 259.707C465.488 251.523 468.952 243.552 471.884 235.34C473.916 229.649 475.77 223.857 478.527 218.461C480.686 214.237 484.534 208.065 489.17 206.205C490.738 205.576 492.469 205.519 494.159 205.47C499.285 205.323 504.411 205.175 509.537 205.028C511.405 204.975 513.349 204.935 515.053 205.705C517.606 206.859 519.049 209.54 520.31 212.042C525.967 223.258 529.573 235.35 531.594 247.821C532.649 254.332 533.624 260.856 534.384 267.405C535.231 274.713 535.813 282.054 535.936 289.406C535.949 290.223 536.078 292.511 536.138 295.252Z" fill="#353535"/>
<path d="M501.936 233.385C501.743 236.29 502.157 239.197 502.57 242.08C505.087 259.636 507.603 277.193 510.12 294.749C496.356 294.629 482.593 294.509 468.828 294.39C469.326 287.812 469.825 281.234 470.323 274.656C470.642 270.439 470.964 266.207 471.854 262.069C473.29 255.394 476.171 249.11 479.032 242.887C484.317 231.387 489.603 219.888 494.888 208.388C495.171 207.774 495.469 207.138 495.99 206.695C496.613 206.165 497.465 205.988 498.28 205.846C502.214 205.163 506.657 204.585 510.611 205.165C511.6 208.765 507.953 215.022 506.601 218.37C504.636 223.242 502.288 228.079 501.936 233.385Z" fill="white"/>
<path d="M476.256 226.445L456.88 197.605L451.923 152.094L460.034 150.292L470.849 191.748L489.774 208.42L476.256 226.445Z" fill="#353535"/>
<path d="M460.035 150.292V147.338L461.387 144.434L460.936 142.181H458.683L457.782 147.138L451.039 148.744L451.924 152.094L460.035 150.292Z" fill="#EFBFA5"/>
<path d="M486.301 261.095L482.12 262.759L478.501 261.132L477.767 261.724L478.459 262.657L475.068 262.167L472.695 263.616L472.428 267.305L474.553 270.482L478.245 270.36L481.974 268.036L487.795 266.007L486.301 261.095Z" fill="#EFBFA5"/>
<path d="M481.476 259.988L505.546 249.876L508.249 221.038L524.922 228.247L521.078 260.347L484.644 268.171L481.476 259.988Z" fill="#353535"/>
<path d="M245.626 310.187L248.814 353.798L259.366 425.999H267.48L272.605 359.379L274.875 305.478L245.626 310.187Z" fill="#BABCBE"/>
<path d="M267.433 425.033V429.42L258.659 433.807L254.271 429.42L258.659 425.033H267.433Z" fill="#292949"/>
<path d="M303.102 299.91L300.017 361.04L292.956 431.217H284.646L277.891 364.728L268.024 294.745L303.102 299.91Z" fill="#BABCBE"/>
<path d="M284.694 430.228V434.722L293.681 439.215L298.174 434.722L293.681 430.228H284.694Z" fill="#292949"/>
<path d="M274.777 201.896C277.612 201.619 280.448 201.342 283.283 201.064C283.313 198.793 283.162 196.519 282.831 194.272C285.195 193.444 287.926 192.202 288.341 189.732C288.472 188.955 288.339 188.159 288.205 187.382C287.654 184.167 287.104 180.953 286.553 177.739C286.362 176.627 286.159 175.482 285.556 174.529C284.497 172.857 282.44 172.123 280.491 171.782C275.516 170.912 270.091 171.982 266.229 175.236C265.201 176.102 264.271 177.144 263.816 178.409C263.115 180.359 263.634 182.513 264.158 184.518C264.642 186.369 265.125 188.22 265.608 190.071C266.164 192.2 266.968 194.621 269.017 195.421C270.105 195.847 271.391 195.724 272.375 196.353C274.113 197.46 273.875 200.044 274.777 201.896Z" fill="#EFBFA5"/>
<path d="M247.079 169.772C247.024 167.568 247.333 165.339 247.774 163.33C248.53 159.877 252.603 158.325 256.129 158.08C263.745 157.552 271.094 154.099 278.532 156.764C282.783 158.287 288.492 158.653 292.34 160.801C293.946 161.698 295.227 163.097 296.225 164.643C299.683 169.999 299.691 177.377 296.248 182.741C295.475 183.944 294.551 185.043 293.58 186.094C291.57 188.267 289.167 190.952 286.405 191.754C286.343 189.285 288.603 181.501 286.709 179.475C283.704 176.259 276.898 177.37 273.163 178.156C269.09 179.014 265.456 181.893 261.417 182.503C258.512 182.943 254.806 181.513 252.338 180.008C248.47 177.649 247.178 173.753 247.079 169.772Z" fill="#233862"/>
<path d="M323.968 161.053L325.614 155.93L323.38 151.744L324.027 150.821L325.196 151.571L324.337 147.565L325.873 144.617L330.253 143.999L334.216 146.277L334.369 150.692L331.898 155.328L329.949 162.437L323.968 161.053Z" fill="#EFBFA5"/>
<path d="M323.738 157.273L331.849 157.724L323.738 197.828L300.6 221.692L287.181 201.646L311.571 185.662L323.738 157.273Z" fill="#353535"/>
<path d="M237.463 146.128L237.187 140.755L240.421 137.283L240.033 136.224L238.71 136.648L240.569 132.999L239.842 129.755L235.766 128.032L231.352 129.217L230.071 133.445L231.268 138.56L231.327 145.931L237.463 146.128Z" fill="#EFBFA5"/>
<path d="M238.656 142.535L230.701 140.888L230.071 171.492L233.197 195.145L253.537 224.998L270.191 200.904L250.855 186.694L238.656 142.535Z" fill="#353535"/>
<path d="M268.042 199.709L294.913 200.847L308.478 252.476L319.679 324.049L233.197 326.152L253.538 224.998L268.042 199.709Z" fill="#353535"/>
<path d="M199.625 214.141L202.899 211.054L202.954 207.086L203.8 206.671L204.354 207.693L205.342 204.413L207.658 202.874L211.115 204.19L213.097 207.459L211.426 210.754L207.744 213.151L203.445 217.57L199.625 214.141Z" fill="#EFBFA5"/>
<path d="M200.661 209.299L182.327 231.028L158.389 207.84L154.667 235.561L183.806 250.008L206.738 215.629L200.661 209.299Z" fill="#78E209"/>
<path d="M128.25 426.893L127.853 430.811L134.972 435.697L139.128 432.263L135.766 427.86L128.647 422.974L128.25 426.893Z" fill="#353535"/>
<path d="M128.427 307.079L127.222 318.981L137.898 359.872L127.984 425.579L135.281 428.093L154.525 363.943L157.578 345.281L157.467 305.773L128.427 307.079Z" fill="#EFBFA5"/>
<path d="M184.554 320.345L169.204 430.447H162.227L160.971 359.872L148.272 310.335L184.554 320.345Z" fill="#EFBFA5"/>
<path d="M162.267 429.576V433.532L169.812 437.486L173.584 433.532L169.812 429.576H162.267Z" fill="#353535"/>
<path d="M167.412 207.319C166.859 206.415 166.121 205.646 165.109 205.074C158.177 201.162 146.688 204.607 139.166 204.607C136.944 228.01 130.798 250.316 126.829 273.294C122.614 297.698 117.867 322.01 112.594 346.208C112.296 347.579 133.527 346.887 135.53 346.921C155.956 347.266 182.693 347.195 202.402 341.019C189.823 307.252 185.231 270.919 175.326 236.273C173.587 230.19 171.522 224.199 169.956 218.068C169.049 214.512 169.189 210.223 167.412 207.319Z" fill="#78E209"/>
<path d="M168.661 179.714C165.989 165.609 148.367 168.046 143.312 179.468C140.438 185.964 143.449 195.158 149.2 199.677C149.323 200.926 149.485 204.371 150.441 205.206C151.474 206.11 154.731 205.248 156.007 204.953C156.362 204.871 156.732 204.769 156.988 204.512C157.309 204.19 157.363 203.329 157.369 202.373C158.306 202.31 159.265 202.127 160.243 201.807C164.341 200.461 167.31 196.666 168.537 192.53C169.764 188.395 169.464 183.952 168.661 179.714Z" fill="#EFBFA5"/>
<path d="M142.606 235.702C142.774 235.692 142.91 235.679 143.009 235.662C146.117 235.128 151.106 234.125 152.549 230.849C154.028 227.493 151.4 221.405 150.967 217.918C150.308 212.617 150.089 207.271 149.834 201.939C149.604 197.132 151.321 192.395 153.836 188.292C156.35 184.188 159.64 180.626 162.879 177.067C164.226 175.587 165.62 174.004 166.033 172.045C166.488 169.879 165.622 167.592 164.193 165.9C161.994 163.298 159.384 162.004 156.064 161.925C144.409 161.646 135.647 168.542 132.34 179.924C127.603 196.235 133.521 211.799 132.64 228.029C132.489 230.801 131.573 233.526 130.019 235.826C130.431 235.215 140.092 235.845 142.606 235.702Z" fill="#233862"/>
<path d="M119.057 297.81C118.124 298.979 116.442 299.348 114.975 299.053C113.508 298.757 112.216 297.905 111.036 296.983C109.613 295.872 108.291 294.632 107.09 293.284C106.4 292.509 105.736 291.674 105.414 290.687C105.092 289.701 105.172 288.527 105.853 287.744C106.32 287.207 107.001 286.916 107.657 286.642C108.122 286.448 108.621 286.25 109.117 286.344C109.533 286.423 109.88 286.697 110.21 286.962C112.474 288.784 122.017 294.103 119.057 297.81Z" fill="#78E209"/>
<path d="M114.468 297.818C114.654 297.87 114.844 297.91 115.039 297.934C115.648 298.009 116.572 297.997 117.134 297.714C117.134 297.714 118.787 296.556 118.062 296.572L116.56 296.605L119.609 293.392L119.851 289.806L116.155 286.769L111.214 286.641C109.734 288.889 107.62 290.97 109.367 293.717C109.886 294.532 110.622 295.181 111.349 295.817C112.286 296.636 113.291 297.487 114.468 297.818Z" fill="#EFBFA5"/>
<path d="M360.106 206.685C359.967 206.737 359.829 206.79 359.691 206.843C353.123 209.398 347.965 220.863 345.009 227.601C337.379 244.992 334.046 263.115 333.44 282.335C333.114 292.684 333.236 303.05 333.565 313.406C333.656 316.267 336.136 341.881 334.868 342.493C347.878 336.218 361.107 330.291 374.956 326.709C388.806 323.128 403.376 321.95 417.366 325.213C413.111 292.699 406.944 259.618 398.051 228.201C396.988 224.443 396.277 220.438 394.7 216.877C392.884 212.776 390.159 211.564 386.716 209.14C385.536 208.31 384.348 207.474 383.052 206.895C376.217 203.841 367.025 204.121 360.106 206.685Z" fill="#353535"/>
<path d="M340.092 309.023L355.003 369.542L355.35 416.077L362.461 417.401L365.405 374.228L372.512 298.252L340.092 309.023Z" fill="#EFBFA5"/>
<path d="M362.667 416.965L363.837 421.49L362.81 430.366L356.943 430.377L354.746 417.546L355.427 415.4L362.667 416.965Z" fill="#353535"/>
<path d="M397.022 302.339L398.337 354.632L391.357 428.49L384.21 429.013L381.642 361.304L367.087 299.921L397.022 302.339Z" fill="#EFBFA5"/>
<path d="M391.134 427.256L400.761 432.367L399.996 436.864L382.99 434.781L383.808 428.309L391.134 427.256Z" fill="#353535"/>
<path d="M399.117 309.086L403.961 369.503L399.033 410.938L379.673 409.841L376.223 362.734L367.851 311.376L369.151 303.38L397.053 303.789L399.117 309.086Z" fill="#353535"/>
<path d="M369.766 365.107L367.492 408.443L350.663 407.58L351.007 366.481L340.396 314.868L342.816 300.441L371.118 302.203L369.766 365.107Z" fill="#353535"/>
<path d="M409.061 310.164C391.74 312.809 362.917 314.829 345.596 317.474C344.663 286.155 347.747 249.989 355.303 219.682C356.674 214.185 358.699 208.252 363.501 205.451C368.647 202.452 379.561 202.858 382.702 208.686C387.296 217.212 388.203 230.783 390.254 240.271C394.891 261.739 406.188 288.384 409.061 310.164Z" fill="white"/>
<path d="M360.454 183.252C363.033 170.476 379.004 172.881 383.469 183.305C386.41 190.172 382.142 200.24 375.229 203.159C375.652 204.905 376.001 206.669 376.273 208.445C374.316 208.554 372.358 208.664 370.401 208.774C369.796 208.808 369.085 208.795 368.722 208.308C368.503 208.013 368.479 207.622 368.463 207.255C368.41 206.017 368.357 204.78 368.304 203.542C368.155 203.498 368.006 203.451 367.857 203.4C364.15 202.134 361.497 198.657 360.428 194.889C359.358 191.121 359.678 187.091 360.454 183.252Z" fill="#EFBFA5"/>
<path d="M362.059 186.747C360.037 190.596 361.289 195.256 362.403 199.247C363.392 202.786 363.569 205.037 359.546 205.29C357.28 205.433 353.252 205.732 351.609 203.745C350.366 202.241 351.822 198.462 352.782 197.022C353.515 195.924 355.04 195.555 355.744 194.437C356.035 193.976 356.155 193.43 356.25 192.895C356.639 190.705 356.696 188.457 356.417 186.251C356.227 184.753 355.883 183.255 355.998 181.75C356.165 179.567 358.098 177.307 359.222 175.461C361.313 172.024 367.301 167.936 371.166 171.535C372.046 172.354 372.439 173.561 372.742 174.724C372.923 175.419 373.085 176.14 372.977 176.849C372.548 179.68 369.891 179.735 367.889 180.788C365.421 182.087 363.35 184.291 362.059 186.747Z" fill="#233862"/>
<path d="M382.462 190.768C382.296 192.795 380.883 194.848 381.707 196.707C382.074 197.535 382.822 198.118 383.424 198.795C385.069 200.644 385.629 203.394 384.837 205.738C388.868 206.239 392.899 206.741 396.93 207.242C397.538 207.318 398.177 207.39 398.745 207.161C399.959 206.673 400.272 205.129 400.411 203.828C400.686 201.264 400.925 198.511 399.668 196.259C399.086 195.215 398.216 194.354 397.637 193.308C394.853 188.278 399.571 181.019 395.904 176.591C394.268 174.615 391.52 174.038 389.339 172.687C385.537 170.331 383.549 165.665 379.602 163.56C372.147 159.586 362.924 167.96 366.451 175.759C369.327 182.119 383.131 182.606 382.462 190.768Z" fill="#233862"/>
<path d="M360.595 207.621C360.595 207.621 355.085 285.385 367.159 300.718C379.234 316.051 384.398 321.828 384.398 321.828L334.914 342.489C334.914 342.489 335.988 229.095 360.595 207.621Z" fill="#353535"/>
<path d="M412.009 255.234C413.177 256.17 413.542 257.853 413.243 259.32C412.945 260.786 412.09 262.076 411.166 263.254C410.051 264.674 408.808 265.994 407.457 267.192C406.681 267.881 405.845 268.542 404.857 268.862C403.87 269.181 402.696 269.1 401.914 268.417C401.378 267.949 401.089 267.267 400.817 266.61C400.623 266.144 400.427 265.645 400.522 265.15C400.602 264.735 400.877 264.387 401.143 264.058C402.97 261.799 408.309 252.267 412.009 255.234Z" fill="#898F92"/>
<path d="M412.007 259.824C412.06 259.638 412.099 259.448 412.124 259.253C412.2 258.645 412.191 257.719 411.909 257.158C411.909 257.158 410.754 255.502 410.769 256.227L410.799 257.728L407.592 254.673L404.006 254.423L400.961 258.112L400.823 263.053C403.067 264.538 405.144 266.655 407.895 264.914C408.711 264.398 409.362 263.663 409.999 262.937C410.821 262.004 411.675 261.001 412.007 259.824Z" fill="#DDC8AC"/>
<path d="M469.098 240.384C467.517 242.847 464.757 244.481 461.613 244.481C459.669 244.481 457.872 243.856 456.41 242.797C455.357 244.317 453.602 245.315 451.613 245.315C449.552 245.315 447.744 244.242 446.707 242.628C445.711 243.103 444.596 243.37 443.419 243.37C439.201 243.37 435.78 239.95 435.78 235.732C435.78 234.248 436.205 232.864 436.937 231.692C433.658 231.5 431.058 228.781 431.058 225.454C431.058 225.334 431.062 225.216 431.069 225.098C427.291 226.479 423.991 228.467 421.272 230.5C416.479 234.087 410.4 235.722 404.439 235.14C396.148 234.332 384.861 235.533 376.442 245.19C365.153 258.137 367.03 274.932 374.008 288.725C379.171 298.932 386.406 308.947 395.824 316.167C404.937 323.154 420.178 328.97 431.478 321.599C434.923 319.351 439.017 318.165 443.117 318.425C462.747 319.67 470.535 297.232 473.183 282.907C475.749 269.018 475.941 253.021 469.098 240.384Z" fill="#78E209"/>
<path d="M418.247 231.619C421.252 229.151 423.595 225.194 425.155 221.034C426.714 216.873 427.56 212.487 428.25 208.152C428.727 205.149 429.138 202.117 429.065 199.207C426.014 200.418 422.979 201.863 419.981 203.531C416.601 205.412 413.205 207.631 410.316 210.924C407.427 214.218 405.08 218.745 404.618 223.337C403.647 233 412.057 236.702 418.247 231.619Z" fill="#292949"/>
<path d="M325.854 0.0174639C308.866 0.420201 288.619 11.6432 285.076 26.5577C278.503 12.7087 251.73 6.5812 235.03 9.72861C190.963 18.0327 181.139 69.1867 203.497 100.535C215.53 117.407 231.759 131.558 249.146 143.968C263.705 154.359 300.69 175.757 300.786 175.661C300.899 175.735 332.613 147.099 344.686 133.901C359.105 118.14 372.028 100.918 380.281 81.9083C395.615 46.5879 370.684 -1.04493 325.854 0.0174639Z" fill="#78E209"/>
<g opacity="0.12">
<path d="M372.084 87.0302C362.417 101.58 350.912 115.495 338.122 127.75C325.754 139.601 310.932 150.352 293.884 155.218C285.695 157.556 277.506 158.214 269.587 157.252C284.917 166.7 301.505 176.264 301.57 176.199C301.683 176.273 333.396 147.638 345.471 134.44C359.89 118.678 372.813 101.456 381.066 82.4466C383.736 76.2957 385.182 69.7711 385.517 63.196C381.725 71.4484 377.152 79.4028 372.084 87.0302Z" fill="black"/>
</g>
<path d="M369.859 73.0202C358.251 74.5422 346.643 76.0635 335.034 77.5854C329.212 62.7491 323.39 47.9122 317.568 33.076C316.727 30.931 313.462 31.4429 312.985 33.5589C306.776 61.1066 300.567 88.6544 294.358 116.202C293.999 117.798 293.639 119.393 293.28 120.989C285.307 104.125 277.334 87.2612 269.362 70.3974C268.083 67.6925 266.805 64.9882 265.526 62.2833C264.755 60.6528 261.891 60.2759 261.126 62.2069C257.569 71.1833 254.011 80.159 250.452 89.1354C237.427 90.5077 224.401 91.8801 211.376 93.2524C208.317 93.575 208.784 98.0493 211.847 97.7267C225.363 96.3026 238.879 94.8785 252.395 93.4544C253.186 93.3711 254.041 92.861 254.331 92.13C257.38 84.4376 260.429 76.7458 263.478 69.0534C271.657 86.3547 279.836 103.655 288.015 120.957C289.294 123.662 290.572 126.366 291.851 129.071C292.811 131.1 295.935 130.805 296.435 128.588C302.643 101.04 308.852 73.4924 315.061 45.9446C315.358 44.6266 315.655 43.3092 315.952 41.9917C321.041 54.9608 326.13 67.9292 331.219 80.8982C331.573 81.799 332.659 82.4334 333.683 82.299C345.899 80.6975 358.114 79.0966 370.329 77.4951C373.375 77.0956 372.916 72.62 369.859 73.0202Z" fill="white"/>
<path d="M126.842 292.918L77.1842 298.561C58.8199 300.648 42.1378 286.599 39.9234 267.18C37.709 247.76 50.8011 230.327 69.1654 228.24L118.698 222.61L126.842 292.918Z" fill="#F7F7F7"/>
<path d="M128.596 292.719L225.095 281.752C239.86 280.074 250.467 266.741 248.784 251.976L246.86 235.107C245.177 220.35 231.854 209.75 217.096 211.427L120.576 222.397L128.596 292.719Z" fill="#353535"/>
<path d="M143.32 243.248L145.947 242.949L148.575 265.994L145.948 266.293L144.76 255.875L134.669 257.022L135.857 267.44L133.23 267.738L130.602 244.693L133.229 244.395L134.417 254.812L144.508 253.665L143.32 243.248Z" fill="white"/>
<path d="M152.275 242.23L163.859 240.913L164.111 243.123L155.155 244.141L156.069 252.159L164.399 251.213L164.65 253.423L156.321 254.37L157.279 262.767L166.832 261.681L167.084 263.891L154.903 265.276L152.275 242.23Z" fill="white"/>
<path d="M173.442 239.824L176.935 239.427L186.698 261.662L184.101 261.957L181.19 255.253L172.89 256.197L171.562 263.383L168.965 263.677L173.442 239.824ZM175.484 242.087L173.294 253.912L180.251 253.122L175.484 242.087Z" fill="white"/>
<path d="M190.371 261.244L187.743 238.199L190.37 237.901L192.746 258.737L200.866 257.814L201.118 260.023L190.371 261.244Z" fill="white"/>
<path d="M197.787 239.297L197.535 237.087L211.865 235.458L212.117 237.668L206.265 238.333L208.641 259.168L206.014 259.466L203.638 238.631L197.787 239.297Z" fill="white"/>
<path d="M227.956 233.629L230.583 233.331L233.211 256.376L230.584 256.674L229.396 246.257L219.304 247.404L220.492 257.821L217.865 258.12L215.237 235.075L217.865 234.776L219.053 245.194L229.143 244.047L227.956 233.629Z" fill="white"/>
<path d="M103.92 254.091C99.7142 254.568 95.5089 255.046 91.3028 255.525C90.9089 255.57 90.515 255.614 90.1211 255.659C89.7519 252.42 89.3826 249.182 89.0133 245.943C88.8277 244.318 88.6428 242.693 88.4572 241.068C88.3953 240.526 87.9092 240.115 87.396 240.174C84.782 240.471 82.168 240.768 79.5546 241.065C79.0427 241.123 78.6595 241.632 78.7214 242.174C79.2283 246.622 79.7358 251.069 80.2427 255.516C80.2901 255.933 80.3374 256.349 80.3854 256.766C77.3225 257.114 74.2597 257.462 71.1969 257.81C69.6604 257.985 68.1233 258.159 66.5869 258.334C66.0749 258.392 65.6918 258.901 65.7536 259.443C66.0686 262.207 66.3842 264.971 66.6992 267.735C66.734 268.042 66.869 268.263 67.0508 268.405C67.2238 268.569 67.4624 268.663 67.7604 268.63C71.9664 268.152 76.1718 267.674 80.3778 267.195C80.7717 267.151 81.1656 267.106 81.5595 267.061C81.9288 270.3 82.2981 273.539 82.6673 276.777C82.8529 278.402 83.0379 280.027 83.2235 281.652C83.2853 282.194 83.7714 282.605 84.2852 282.546C86.8992 282.249 89.5126 281.952 92.1266 281.655C92.417 281.622 92.6247 281.482 92.7566 281.292C92.9094 281.111 92.9952 280.861 92.9592 280.546C92.4523 276.098 91.9448 271.651 91.4379 267.204C91.3906 266.788 91.3432 266.371 91.2953 265.954C94.3581 265.606 97.4209 265.258 100.484 264.91C102.021 264.735 103.557 264.561 105.094 264.386C105.606 264.328 105.989 263.82 105.927 263.277C105.612 260.514 105.296 257.749 104.981 254.985C104.92 254.443 104.433 254.033 103.92 254.091Z" fill="#353535"/>
<path d="M366.216 267.813C366.257 268.001 366.312 268.187 366.383 268.371C366.604 268.942 367.051 269.753 367.565 270.114C367.565 270.114 369.366 271.026 369.01 270.394L368.272 269.086L372.543 270.259L375.821 268.781L376.756 264.089L374.539 259.672C371.859 259.427 369.027 258.544 367.428 261.381C366.953 262.222 366.729 263.178 366.51 264.118C366.229 265.331 365.952 266.618 366.216 267.813Z" fill="#5BAE05"/>
<path d="M368.707 259.349L353.351 249.383L341.525 260.544L366.383 268.371L368.707 259.349Z" fill="#353535"/>
</svg>
