<svg width="658" height="355" viewBox="0 0 658 355" fill="none" xmlns="http://www.w3.org/2000/svg">
<path d="M59.6614 354.004C59.6614 354.004 -9.90618 279.31 47.8965 198.444C99.1828 126.694 158.978 131.599 202.848 160.716C221.533 173.117 275.404 162.244 321.254 89.2356C383.782 -10.3276 600.527 50.0578 561.008 203.239C541.884 277.367 619.212 280.061 579.81 354.16L59.6614 354.004Z" fill="#ECFFD8"/>
<path d="M658 220.667C658 225.957 630.689 233.23 597 233.23C563.311 233.23 536 225.957 536 220.667C536 215.376 563.311 211.087 597 211.087C630.689 211.088 658 215.377 658 220.667Z" fill="#93D1DB"/>
<path d="M655.21 211.185C656.502 204.914 652.465 198.782 646.193 197.491C639.921 196.199 633.79 200.236 632.498 206.508C631.207 212.78 635.244 218.911 641.516 220.203C647.787 221.494 653.919 217.457 655.21 211.185Z" fill="#DBA32C"/>
<path d="M651.63 212.509C653.65 208.219 651.809 203.102 647.519 201.082C643.228 199.062 638.112 200.902 636.091 205.193C634.071 209.484 635.911 214.6 640.202 216.62C644.493 218.641 649.609 216.8 651.63 212.509Z" fill="#EDCB3A"/>
<path d="M650.9 207.676C650.774 206.914 650.529 206.189 650.18 205.525L639.814 214.717C640.432 215.143 641.122 215.473 641.864 215.689L650.9 207.676Z" fill="#FFEEA4"/>
<path d="M645.513 201.899L636.772 209.651C636.966 211.36 637.768 212.899 638.968 214.032L649.6 204.602C648.619 203.275 647.187 202.296 645.513 201.899Z" fill="#FFEEA4"/>
<path d="M648.166 204.171C648.184 203.876 647.959 203.622 647.664 203.605L640.706 203.191C640.411 203.173 640.157 203.398 640.14 203.693C640.122 203.988 640.347 204.242 640.642 204.259L642.529 204.371C643.605 204.435 644.484 205.115 644.789 206.015L640.553 205.763C640.258 205.746 640.004 205.97 639.987 206.266C639.969 206.56 640.194 206.814 640.489 206.831L644.87 207.092C644.665 208.246 643.547 209.087 642.253 209.01L640.366 208.898C640.071 208.88 639.818 209.105 639.8 209.4C639.783 209.695 640.008 209.949 640.303 209.966L641.457 210.035L644.655 214.905C644.766 215.073 644.95 215.18 645.152 215.192C645.676 215.222 646.011 214.642 645.723 214.203L643.048 210.129L647.261 210.38C647.555 210.398 647.809 210.173 647.826 209.878C647.844 209.583 647.619 209.329 647.324 209.312L645.455 209.201C645.979 208.653 646.333 207.959 646.436 207.185L647.447 207.245C647.742 207.263 647.995 207.038 648.013 206.743C648.03 206.448 647.805 206.194 647.51 206.177L646.411 206.111C646.311 205.545 646.073 205.018 645.73 204.561L647.6 204.672C647.895 204.691 648.149 204.466 648.166 204.171Z" fill="#AA7921"/>
<path opacity="0.32" d="M632.286 208.145C632.018 212.617 634.324 216.646 637.921 218.796C637.974 218.736 638.031 218.679 638.083 218.617C638.101 218.597 638.119 218.577 638.136 218.557C638.25 218.423 638.361 218.287 638.472 218.149C638.501 218.113 638.532 218.076 638.561 218.039C638.666 217.907 638.77 217.773 638.872 217.638C638.905 217.595 638.937 217.551 638.969 217.508C639.07 217.373 639.168 217.237 639.265 217.1C639.296 217.055 639.327 217.01 639.359 216.966C639.456 216.825 639.553 216.684 639.647 216.54C639.673 216.501 639.698 216.461 639.724 216.421C639.822 216.27 639.92 216.117 640.015 215.962C640.029 215.94 640.042 215.917 640.055 215.895C640.27 215.542 640.477 215.182 640.674 214.811C640.791 214.59 640.905 214.365 641.016 214.138C641.103 213.958 641.187 213.774 641.271 213.59C641.273 213.585 641.275 213.58 641.277 213.575C641.358 213.397 641.436 213.216 641.512 213.034C641.53 212.993 641.547 212.953 641.564 212.912C641.589 212.852 641.616 212.793 641.64 212.733C641.685 212.622 641.727 212.507 641.771 212.394C641.792 212.341 641.813 212.288 641.833 212.234C641.898 212.064 641.96 211.892 642.022 211.718C642.042 211.66 642.063 211.602 642.083 211.544C642.143 211.369 642.202 211.193 642.259 211.015C642.277 210.959 642.294 210.903 642.312 210.846C642.37 210.662 642.426 210.477 642.48 210.289C642.492 210.246 642.504 210.202 642.517 210.158C642.562 209.999 642.607 209.842 642.65 209.681C642.79 209.145 642.917 208.595 643.029 208.031C643.085 207.749 643.138 207.463 643.187 207.174C643.285 206.596 643.368 206.003 643.437 205.395C643.505 204.788 643.558 204.166 643.597 203.529C643.619 203.159 643.631 202.788 643.639 202.417C643.641 202.298 643.64 202.179 643.641 202.06C643.643 201.804 643.642 201.546 643.637 201.289C643.635 201.153 643.631 201.017 643.626 200.88C643.618 200.631 643.606 200.382 643.591 200.132C643.584 200 643.577 199.869 643.568 199.738C643.546 199.43 643.519 199.121 643.488 198.813C643.479 198.732 643.473 198.651 643.464 198.569C643.426 198.22 643.382 197.87 643.332 197.52C643.32 197.433 643.306 197.346 643.292 197.26C637.455 197.538 632.644 202.178 632.286 208.145Z" fill="#554C3D"/>
<path d="M604.933 137.394L590.941 128.725C589.701 127.957 589.318 126.329 590.086 125.088L610.826 91.614C611.594 90.3739 613.222 89.9914 614.462 90.7596L628.455 99.4286C629.695 100.197 630.077 101.825 629.309 103.066L608.57 136.54C607.801 137.78 606.173 138.163 604.933 137.394Z" fill="#EFC2EC"/>
<path d="M628.283 102.666L607.755 135.798C607.243 136.624 606.159 136.879 605.333 136.367L591.683 127.91C590.857 127.398 590.602 126.314 591.114 125.488L611.642 92.3557C612.153 91.5298 613.237 91.2751 614.063 91.7869L627.714 100.244C628.539 100.755 628.794 101.84 628.283 102.666Z" fill="#D292CC"/>
<path d="M611.43 92.6961L601.377 108.922L618.018 119.232L628.071 103.006C628.699 101.992 628.387 100.661 627.373 100.033L614.403 91.9977C613.389 91.3695 612.058 91.6822 611.43 92.6961Z" fill="#A0679C"/>
<path d="M611.793 122.865C616.647 121.706 619.642 116.831 618.483 111.976C617.323 107.122 612.448 104.127 607.594 105.286C602.74 106.446 599.745 111.321 600.904 116.175C602.063 121.029 606.938 124.024 611.793 122.865Z" fill="#EFC2EC"/>
<path d="M607.445 107.56C607.173 107.391 606.815 107.475 606.647 107.747L602.672 114.163C602.503 114.435 602.587 114.793 602.859 114.961C603.131 115.129 603.489 115.046 603.657 114.774L604.735 113.034C605.349 112.042 606.45 111.554 607.464 111.726L605.044 115.633C604.875 115.905 604.959 116.262 605.231 116.43C605.503 116.599 605.861 116.515 606.029 116.243L608.532 112.203C609.525 112.993 609.751 114.491 609.012 115.684L607.934 117.424C607.766 117.696 607.85 118.053 608.122 118.222C608.394 118.39 608.751 118.306 608.919 118.034L609.579 116.97L615.864 116.429C616.082 116.41 616.278 116.289 616.393 116.103C616.692 115.619 616.312 115.001 615.745 115.05L610.488 115.502L612.895 111.617C613.063 111.345 612.98 110.988 612.707 110.82C612.435 110.651 612.078 110.735 611.91 111.007L610.842 112.73C610.59 111.949 610.112 111.255 609.427 110.759L610.004 109.827C610.173 109.555 610.089 109.197 609.817 109.029C609.545 108.861 609.188 108.944 609.019 109.216L608.391 110.23C607.8 110.034 607.176 109.989 606.564 110.081L607.632 108.357C607.8 108.086 607.717 107.728 607.445 107.56Z" fill="#604260"/>
<path d="M593.544 121.565L591.325 125.147C590.696 126.161 591.009 127.492 592.023 128.121L595.626 130.353C597.402 127.342 596.485 123.461 593.544 121.565Z" fill="#604260"/>
<path d="M601.403 133.947L604.986 136.166C606 136.794 607.331 136.482 607.959 135.468L610.192 131.865C607.18 130.088 603.299 131.006 601.403 133.947Z" fill="#604260"/>
<path d="M625.852 106.589L628.071 103.006C628.699 101.992 628.387 100.661 627.373 100.033L623.77 97.8005C621.994 100.812 622.911 104.693 625.852 106.589Z" fill="#604260"/>
<path d="M617.992 94.2071L614.41 91.9876C613.396 91.3593 612.065 91.672 611.436 92.686L609.204 96.2892C612.215 98.0649 616.096 97.1475 617.992 94.2071Z" fill="#604260"/>
<path d="M598.259 126.691L585.247 136.77C584.093 137.664 582.434 137.453 581.541 136.3L557.427 105.169C556.533 104.015 556.744 102.356 557.897 101.463L570.91 91.3828C572.064 90.4892 573.723 90.7001 574.616 91.8536L598.73 122.985C599.623 124.138 599.413 125.798 598.259 126.691Z" fill="#EFCC80"/>
<path d="M573.882 92.6761L597.75 123.489C598.345 124.257 598.205 125.362 597.437 125.957L584.742 135.791C583.974 136.386 582.869 136.246 582.274 135.477L558.406 104.664C557.811 103.896 557.951 102.791 558.719 102.196L571.414 92.3624C572.182 91.7676 573.287 91.9079 573.882 92.6761Z" fill="#D2AE5D"/>
<path d="M558.651 104.981L570.34 120.071L585.816 108.083L574.128 92.9929C573.397 92.0498 572.041 91.8775 571.097 92.6079L559.036 101.951C558.093 102.682 557.921 104.038 558.651 104.981Z" fill="#A0803B"/>
<path d="M585.04 119.839C588.221 115.994 587.683 110.297 583.837 107.116C579.992 103.935 574.295 104.473 571.114 108.319C567.933 112.165 568.471 117.861 572.317 121.042C576.162 124.223 581.859 123.685 585.04 119.839Z" fill="#EFCC80"/>
<path d="M571.184 113.91C570.931 114.106 570.885 114.47 571.081 114.723L575.703 120.69C575.899 120.943 576.263 120.989 576.516 120.793C576.768 120.597 576.815 120.233 576.619 119.98L575.365 118.362C574.651 117.44 574.578 116.238 575.095 115.348L577.909 118.981C578.104 119.234 578.468 119.281 578.721 119.085C578.974 118.889 579.02 118.525 578.825 118.272L575.914 114.515C577.001 113.86 578.484 114.172 579.343 115.281L580.597 116.899C580.793 117.152 581.157 117.199 581.409 117.003C581.662 116.807 581.709 116.443 581.513 116.19L580.746 115.2L582.436 109.123C582.495 108.912 582.45 108.686 582.316 108.513C581.967 108.064 581.255 108.204 581.103 108.752L579.689 113.836L576.891 110.223C576.695 109.971 576.331 109.924 576.078 110.12C575.825 110.316 575.779 110.68 575.975 110.933L577.217 112.536C576.396 112.498 575.579 112.704 574.875 113.173L574.203 112.305C574.007 112.053 573.643 112.006 573.39 112.202C573.138 112.398 573.091 112.762 573.287 113.015L574.017 113.957C573.627 114.443 573.367 115.012 573.239 115.618L571.997 114.014C571.801 113.761 571.437 113.714 571.184 113.91Z" fill="#785F3A"/>
<path d="M579.447 131.829L582.028 135.161C582.759 136.104 584.115 136.276 585.058 135.546L588.409 132.95C586.209 130.234 582.252 129.737 579.447 131.829Z" fill="#785F3A"/>
<path d="M593.795 128.793L597.127 126.212C598.07 125.482 598.243 124.125 597.512 123.182L594.917 119.831C592.2 122.032 591.703 125.989 593.795 128.793Z" fill="#785F3A"/>
<path d="M576.708 96.3249L574.127 92.9932C573.397 92.0501 572.04 91.8777 571.097 92.6082L567.746 95.2038C569.947 97.9201 573.904 98.417 576.708 96.3249Z" fill="#785F3A"/>
<path d="M562.361 99.3605L559.029 101.941C558.086 102.672 557.913 104.029 558.644 104.972L561.239 108.323C563.956 106.122 564.453 102.165 562.361 99.3605Z" fill="#785F3A"/>
<path d="M601.595 132.048L585.135 132.056C583.676 132.056 582.493 130.874 582.492 129.415L582.475 90.0372C582.474 88.578 583.656 87.3949 585.115 87.3942L601.575 87.3867C603.034 87.386 604.218 88.5684 604.218 90.0272L604.236 129.405C604.236 130.864 603.054 132.047 601.595 132.048Z" fill="#BDEFDC"/>
<path d="M603.135 90.2288L603.153 129.205C603.153 130.176 602.366 130.964 601.394 130.965L585.336 130.972C584.365 130.972 583.577 130.185 583.576 129.214L583.559 90.2377C583.558 89.2661 584.345 88.4783 585.317 88.4776L601.375 88.4705C602.347 88.4701 603.134 89.2572 603.135 90.2288Z" fill="#8ED2BB"/>
<path d="M583.559 90.6383L583.567 109.726L603.144 109.717L603.135 90.6298C603.135 89.4371 602.167 88.4705 600.974 88.4708L585.718 88.4772C584.525 88.4779 583.558 89.4452 583.559 90.6383Z" fill="#64A08A"/>
<path d="M593.355 118.758C598.346 118.758 602.392 114.712 602.392 109.721C602.392 104.73 598.346 100.684 593.355 100.684C588.364 100.684 584.318 104.73 584.318 109.721C584.318 114.712 588.364 118.758 593.355 118.758Z" fill="#BDEFDC"/>
<path d="M588.005 105.37C587.686 105.37 587.426 105.63 587.426 105.95L587.429 113.498C587.429 113.818 587.689 114.077 588.009 114.077C588.329 114.077 588.589 113.817 588.588 113.497L588.587 111.45C588.587 110.284 589.265 109.288 590.218 108.901L590.22 113.496C590.22 113.816 590.48 114.076 590.8 114.075C591.12 114.075 591.379 113.816 591.379 113.496L591.377 108.743C592.637 108.891 593.619 110.045 593.619 111.447L593.62 113.495C593.62 113.814 593.88 114.074 594.2 114.074C594.52 114.074 594.78 113.814 594.779 113.494L594.779 112.242L599.835 108.469C600.01 108.339 600.113 108.132 600.113 107.913C600.112 107.345 599.463 107.02 599.008 107.36L594.778 110.515L594.776 105.946C594.776 105.626 594.516 105.366 594.196 105.367C593.876 105.367 593.616 105.626 593.617 105.946L593.618 107.974C592.992 107.442 592.219 107.105 591.376 107.044L591.376 105.947C591.376 105.627 591.116 105.368 590.796 105.368C590.476 105.368 590.216 105.628 590.217 105.948L590.217 107.14C589.612 107.285 589.057 107.576 588.586 107.977L588.585 105.949C588.585 105.629 588.325 105.37 588.005 105.37Z" fill="#406052"/>
<path d="M583.573 124.598L583.575 128.813C583.575 130.006 584.543 130.972 585.736 130.972L589.975 130.97C589.897 127.475 587.072 124.66 583.573 124.598Z" fill="#406052"/>
<path d="M596.778 130.979L600.993 130.977C602.186 130.977 603.152 130.009 603.152 128.817L603.15 124.578C599.655 124.656 596.84 127.481 596.778 130.979Z" fill="#406052"/>
<path d="M603.137 94.8441L603.135 90.6298C603.135 89.4371 602.167 88.4705 600.974 88.4708L596.735 88.4726C596.813 91.9675 599.639 94.7821 603.137 94.8441Z" fill="#406052"/>
<path d="M589.932 88.4635L585.718 88.4653C584.525 88.466 583.558 89.4333 583.559 90.626L583.56 94.8649C587.056 94.7869 589.87 91.962 589.932 88.4635Z" fill="#406052"/>
<path d="M615.134 140.499L622.669 129.475C625.811 124.877 622.519 118.64 616.951 118.64H594.557H572.163C566.594 118.64 563.302 124.877 566.444 129.475L574.06 140.617C576.101 143.603 575.499 147.652 572.682 149.921C559.573 160.475 547.49 177.833 547.49 194.221C547.49 220.146 568.506 227.968 594.431 227.968C620.356 227.968 641.372 220.146 641.372 194.221C641.372 177.775 629.638 160.35 616.518 149.807C613.696 147.539 613.091 143.487 615.134 140.499Z" fill="#78E209"/>
<path d="M616.517 149.806C613.696 147.539 613.092 143.487 615.134 140.499L622.669 129.475C622.706 129.421 622.737 129.366 622.772 129.312C616.651 134.076 607.343 136.793 593.21 134.666C579.944 132.67 571.133 128.896 565.306 124.546C565.056 126.173 565.38 127.918 566.444 129.475L574.059 140.617C575.576 142.836 575.63 145.642 574.403 147.868C587.714 145.924 619.7 142.938 627.782 182.979C635.195 219.704 563.341 225.437 547.526 195.995C548.472 220.501 569.107 227.967 594.43 227.967C620.355 227.967 641.371 220.145 641.371 194.22C641.372 177.774 629.638 160.35 616.517 149.806Z" fill="#5BAE05"/>
<path d="M610.428 170.685V166.427H578.433V170.685H588.085C592.371 170.685 596.026 173.178 597.449 176.681H578.433V180.939H598.026C597.482 185.57 593.239 189.176 588.084 189.176H578.433V193.435H585.163L599.781 213.046L606.117 213.038L591.505 193.435H610.428V189.176H600.848C602.801 186.876 604.044 184.038 604.267 180.939H610.428V176.681H603.918C603.385 174.455 602.317 172.417 600.844 170.685H610.428Z" fill="white"/>
<path d="M641.372 194.221C641.372 187.613 639.475 180.848 636.358 174.435C641.887 214.008 587.735 238.102 549.236 205.908C554.776 222.572 572.909 227.967 594.43 227.967C620.356 227.967 641.372 220.145 641.372 194.221Z" fill="#5BAE05"/>
<path d="M615.134 140.499L615.781 139.553C604.006 142.777 586.954 143.131 571.909 137.47L574.06 140.617C574.836 141.752 575.227 143.04 575.263 144.326C594.819 143.942 608.654 147.095 616.067 149.408C613.639 147.087 613.206 143.32 615.134 140.499Z" fill="#78E209"/>
<path d="M553.873 184.087C553.873 184.087 558.304 164.079 576.367 152.95L553.873 184.087Z" fill="#5BAE05"/>
<path d="M573.705 146.646C572.672 146.646 571.767 145.888 571.612 144.835C571.443 143.678 572.244 142.603 573.401 142.433C574.122 142.327 591.34 139.875 615.483 142.423C616.646 142.545 617.49 143.587 617.367 144.751C617.245 145.913 616.203 146.758 615.039 146.634C591.462 144.147 574.186 146.598 574.014 146.624C573.91 146.639 573.807 146.646 573.705 146.646Z" fill="#554C3D"/>
<path d="M571.609 144.798C571.611 144.811 571.611 144.823 571.613 144.835C571.767 145.888 572.672 146.647 573.706 146.647C573.808 146.647 573.911 146.639 574.014 146.624C574.186 146.599 591.462 144.147 615.039 146.635C616.185 146.757 617.211 145.939 617.359 144.803C592.038 142.141 573.706 144.506 571.609 144.798Z" fill="#3F3B34"/>
<path d="M606.298 145.906C606.655 145.928 607.013 145.951 607.374 145.975V141.727C607.013 141.703 606.655 141.681 606.298 141.658V145.906Z" fill="#685D4E"/>
<path d="M603.896 145.773C604.252 145.79 604.611 145.809 604.971 145.829V141.581C604.611 141.561 604.252 141.543 603.896 141.525V145.773Z" fill="#685D4E"/>
<path d="M599.09 145.59C599.446 145.599 599.804 145.61 600.166 145.621V141.374C599.804 141.362 599.446 141.352 599.09 141.342V145.59Z" fill="#685D4E"/>
<path d="M601.493 145.667C601.849 145.68 602.207 145.695 602.569 145.711V141.464C602.207 141.448 601.849 141.433 601.493 141.42V145.667Z" fill="#685D4E"/>
<path d="M613.506 146.48C613.864 146.515 614.222 146.551 614.582 146.588V142.33C614.222 142.294 613.864 142.259 613.506 142.224V146.48Z" fill="#685D4E"/>
<path d="M615.909 142.513V146.544C616.344 146.404 616.722 146.126 616.985 145.756V143.303C616.725 142.938 616.352 142.655 615.909 142.513Z" fill="#685D4E"/>
<path d="M596.687 145.542C597.043 145.547 597.401 145.552 597.763 145.559V141.311C597.401 141.304 597.043 141.298 596.687 141.292V145.542Z" fill="#685D4E"/>
<path d="M608.701 146.068C609.058 146.095 609.416 146.122 609.777 146.15V141.9C609.416 141.872 609.058 141.845 608.701 141.819V146.068Z" fill="#685D4E"/>
<path d="M611.104 146.26C611.461 146.291 611.82 146.322 612.18 146.355V142.101C611.82 142.069 611.461 142.038 611.104 142.008V146.26Z" fill="#685D4E"/>
<path d="M587.076 145.637C587.428 145.625 587.788 145.613 588.152 145.603V141.347C587.788 141.357 587.428 141.368 587.076 141.38V145.637Z" fill="#685D4E"/>
<path d="M577.465 146.238C577.801 146.206 578.16 146.174 578.541 146.141V141.878C578.163 141.91 577.805 141.942 577.465 141.974V146.238Z" fill="#685D4E"/>
<path d="M575.062 146.491C575.361 146.456 575.72 146.415 576.138 146.371V142.105C575.737 142.147 575.379 142.186 575.062 142.223V146.491Z" fill="#685D4E"/>
<path d="M572.66 142.69V146.366C572.972 146.544 573.329 146.647 573.705 146.647C573.715 146.647 573.726 146.645 573.736 146.645V142.387C573.559 142.411 573.446 142.427 573.4 142.433C573.131 142.473 572.883 142.563 572.66 142.69Z" fill="#685D4E"/>
<path d="M579.868 146.033C580.213 146.007 580.572 145.98 580.944 145.954V141.693C580.573 141.719 580.214 141.745 579.868 141.771V146.033Z" fill="#685D4E"/>
<path d="M594.284 145.521C594.639 145.522 594.998 145.524 595.36 145.527V141.277C594.998 141.274 594.639 141.271 594.284 141.27V145.521Z" fill="#685D4E"/>
<path d="M589.479 145.569C589.833 145.561 590.192 145.554 590.555 145.548V141.295C590.192 141.3 589.833 141.307 589.479 141.314V145.569Z" fill="#685D4E"/>
<path d="M582.271 145.867C582.62 145.846 582.978 145.824 583.346 145.804V141.545C582.979 141.565 582.62 141.585 582.271 141.607V145.867Z" fill="#685D4E"/>
<path d="M591.882 145.531C592.236 145.527 592.595 145.525 592.958 145.523V141.271C592.595 141.273 592.236 141.275 591.882 141.278V145.531Z" fill="#685D4E"/>
<path d="M584.674 145.736C585.026 145.719 585.383 145.702 585.75 145.687V141.43C585.384 141.445 585.026 141.461 584.674 141.477V145.736Z" fill="#685D4E"/>
<path d="M612.491 144.529C612.491 144.529 615.482 155.831 622.907 162.48" stroke="#554C3D" stroke-width="4.62994" stroke-miterlimit="10" stroke-linecap="round"/>
<path d="M608.969 143.962C608.969 143.962 607.866 151.15 611.355 160.485" stroke="#554C3D" stroke-width="4.62994" stroke-miterlimit="10" stroke-linecap="round"/>
<path d="M614.223 147.393C616.118 145.499 616.118 142.427 614.223 140.532C612.328 138.638 609.257 138.638 607.362 140.532C605.468 142.427 605.468 145.499 607.362 147.393C609.257 149.288 612.328 149.288 614.223 147.393Z" fill="#554C3D"/>
<path d="M610.793 146.928C608.437 146.928 606.474 145.247 606.035 143.02C605.975 143.325 605.942 143.64 605.942 143.963C605.942 146.642 608.114 148.814 610.793 148.814C613.473 148.814 615.645 146.642 615.645 143.963C615.645 143.64 615.612 143.325 615.552 143.02C615.113 145.247 613.15 146.928 610.793 146.928Z" fill="#3F3B34"/>
<path d="M610.794 143.962C612.455 143.962 613.801 143.118 613.801 142.076C613.801 141.035 612.455 140.191 610.794 140.191C609.133 140.191 607.786 141.035 607.786 142.076C607.786 143.118 609.133 143.962 610.794 143.962Z" fill="#685D4E"/>
<path d="M640.671 201.914C634.016 214.792 618.741 225.272 595.663 225.272C578.448 225.272 567.558 222.973 560.88 220.578C569.4 225.947 581.279 227.968 594.43 227.968C617.588 227.968 636.827 221.725 640.671 201.914Z" fill="#78E209"/>
<path d="M574.055 119.81H615.953C616.181 119.81 616.206 120.144 615.98 120.174C609.522 121.046 591.424 122.981 574.025 120.176C573.804 120.141 573.83 119.81 574.055 119.81Z" fill="#E8C589"/>
<path d="M641.822 221.33C646.35 216.802 646.35 209.46 641.822 204.932C637.294 200.404 629.953 200.404 625.425 204.932C620.897 209.46 620.897 216.802 625.425 221.33C629.953 225.858 637.294 225.858 641.822 221.33Z" fill="#DBA32C"/>
<path d="M636.642 221.174C641.081 219.503 643.325 214.551 641.655 210.112C639.984 205.673 635.032 203.429 630.593 205.1C626.154 206.77 623.91 211.722 625.581 216.161C627.251 220.6 632.203 222.844 636.642 221.174Z" fill="#EDCB3A"/>
<path d="M640.665 211.967C640.539 211.205 640.294 210.481 639.945 209.816L629.58 219.009C630.197 219.435 630.887 219.765 631.629 219.98L640.665 211.967Z" fill="#FFEEA4"/>
<path d="M635.279 206.191L626.538 213.943C626.731 215.652 627.533 217.192 628.733 218.324L639.365 208.894C638.385 207.567 636.952 206.588 635.279 206.191Z" fill="#FFEEA4"/>
<path d="M637.931 208.463C637.949 208.168 637.724 207.914 637.429 207.897L630.471 207.483C630.176 207.465 629.922 207.69 629.905 207.985C629.887 208.28 630.112 208.534 630.407 208.551L632.295 208.663C633.37 208.727 634.249 209.407 634.554 210.307L630.318 210.055C630.023 210.038 629.769 210.262 629.752 210.558C629.735 210.852 629.959 211.106 630.255 211.123L634.636 211.384C634.43 212.538 633.312 213.379 632.019 213.302L630.131 213.19C629.836 213.172 629.583 213.397 629.565 213.692C629.548 213.987 629.773 214.241 630.068 214.258L631.222 214.327L634.42 219.197C634.531 219.365 634.715 219.472 634.917 219.484C635.441 219.514 635.776 218.934 635.488 218.495L632.813 214.421L637.026 214.672C637.321 214.69 637.574 214.465 637.592 214.17C637.609 213.875 637.384 213.621 637.089 213.604L635.22 213.493C635.744 212.945 636.099 212.251 636.201 211.477L637.212 211.537C637.507 211.555 637.76 211.33 637.778 211.035C637.795 210.74 637.571 210.486 637.275 210.469L636.176 210.403C636.076 209.837 635.838 209.31 635.495 208.853L637.365 208.964C637.66 208.983 637.914 208.758 637.931 208.463Z" fill="#AA7921"/>
<path d="M648.531 200.729C648.391 199.428 647.427 198.356 646.144 198.082C647.451 197.964 648.536 197.015 648.83 195.739C648.97 197.041 649.934 198.113 651.217 198.386C649.91 198.504 648.825 199.454 648.531 200.729Z" fill="white"/>
<path d="M626.281 205.754C626.142 204.452 625.178 203.38 623.894 203.107C625.201 202.989 626.287 202.039 626.58 200.764C626.72 202.065 627.684 203.137 628.968 203.411C627.661 203.529 626.575 204.478 626.281 205.754Z" fill="white"/>
<path d="M643.41 221.629C643.271 220.328 642.307 219.256 641.023 218.982C642.33 218.864 643.416 217.915 643.709 216.639C643.849 217.941 644.813 219.013 646.097 219.286C644.79 219.405 643.704 220.354 643.41 221.629Z" fill="white"/>
<path d="M623.806 254.859C618.907 236.772 588.385 242.424 588.385 242.424C588.385 242.424 567.661 274.076 561.632 274.83C555.603 275.583 574.066 244.308 574.066 244.308C562.385 243.178 532.618 257.496 532.618 257.496C532.618 257.496 534.501 294.424 528.472 293.67C522.444 292.916 528.472 260.888 528.472 260.888C517.168 264.279 506.617 277.467 506.617 277.467C493.429 298.946 521.69 314.771 521.69 314.771C521.69 314.771 522.067 327.583 514.154 342.278L514.153 342.279C514.153 342.279 512.368 344.992 510.552 349.604H513.634C513.886 348.777 514.163 347.979 514.47 347.212C514.47 347.206 514.472 347.202 514.476 347.198C514.481 347.187 514.485 347.176 514.49 347.165C514.701 346.689 515.004 346.011 515.382 345.186C515.383 345.185 515.384 345.183 515.384 345.183C515.384 345.18 515.386 345.18 515.386 345.178C516.328 343.335 516.964 341.974 517.366 340.991C517.368 340.987 517.369 340.985 517.369 340.981C520.191 335.196 524.255 327.657 526.965 326.076C526.965 326.076 526.624 325.596 526.306 324.662C526.516 325.113 526.735 325.583 526.965 326.076C532.241 337.38 558.617 339.264 573.313 336.249C588.008 333.235 581.603 329.09 573.69 322.363C565.777 315.636 549.197 317.409 544.299 314.771C539.4 312.134 546.559 309.496 556.356 310.25C566.154 311.003 571.052 320.801 586.878 322.308C602.704 323.815 614.762 294.047 614.762 294.047C603.834 297.438 584.24 291.409 583.487 287.641C582.733 283.873 611.747 284.25 616.269 283.12C620.791 281.989 628.704 272.945 623.806 254.859Z" fill="#78E209"/>
<path d="M207.85 259.793C207.85 259.793 209.197 270.538 207.182 270.665C205.167 270.792 206.544 258.584 206.544 258.584C206.544 258.584 196.963 253.23 193.067 253.367C193.067 253.367 198.553 264.115 196.569 263.742C194.585 263.369 188.356 252.45 188.356 252.45C188.356 252.45 178.349 249.954 176.356 255.852C174.364 261.751 176.804 264.911 178.28 265.378C179.757 265.845 189.387 266.311 189.06 267.545C188.733 268.779 182.112 270.38 178.558 269.033C178.558 269.033 181.95 279.15 187.229 278.973C192.508 278.795 194.333 275.646 197.597 275.595C200.861 275.545 203.182 276.566 201.504 277.341C199.825 278.116 194.363 277.19 191.602 279.26C188.841 281.33 186.632 282.574 191.444 283.873C196.256 285.172 205.042 285.084 207.022 281.443C207.108 281.284 207.19 281.133 207.269 280.987C207.145 281.29 207.022 281.443 207.022 281.443C207.889 282.023 209.083 284.606 209.901 286.583C210.014 286.917 210.198 287.382 210.473 288.015C210.583 288.3 210.671 288.533 210.731 288.696C212.185 293.1 210.819 300.467 210.819 300.467L211.844 300.811C214.61 293.471 210.941 287.077 210.941 287.077C208.616 282.042 209.002 277.801 209.002 277.801C209.002 277.801 218.696 273.128 214.76 265.737C214.76 265.737 211.529 261.148 207.85 259.793Z" fill="#78E209"/>
<path d="M135.352 307.749C134.484 294.496 156.248 291.278 156.248 291.278C156.248 291.278 177.413 307.744 181.629 306.865C185.845 305.986 166.283 289.254 166.283 289.254C173.856 285.814 197.105 288.58 197.105 288.58C197.105 288.58 204.32 313.775 208.19 311.885C212.06 309.995 200.663 289.903 200.663 289.903C209.021 289.581 219.125 296.002 219.125 296.002C232.9 307.377 217.583 324.477 217.583 324.477C217.583 324.477 220.272 333.155 228.952 341.192L228.953 341.192C228.953 341.192 230.773 342.602 233.049 345.277L230.983 345.985C230.624 345.489 230.255 345.017 229.872 344.573C229.871 344.569 229.869 344.567 229.865 344.565C229.86 344.559 229.854 344.552 229.849 344.546C229.598 344.275 229.239 343.89 228.796 343.424C228.795 343.423 228.795 343.422 228.794 343.422C228.794 343.42 228.792 343.421 228.792 343.419C227.737 342.4 226.998 341.633 226.503 341.066C226.501 341.064 226.499 341.062 226.498 341.061C223.278 337.829 218.822 333.707 216.641 333.269C216.641 333.269 216.76 332.869 216.759 332.17C216.721 332.52 216.682 332.886 216.641 333.269C215.699 342.06 198.445 349.38 187.898 350.733C177.352 352.085 180.696 347.835 184.457 341.507C188.219 335.18 199.744 332.562 202.423 329.669C205.102 326.775 199.695 326.65 193.299 329.405C186.903 332.16 185.867 339.854 175.601 344.499C165.335 349.143 150.415 331.95 150.415 331.95C158.521 331.715 170.275 323.174 169.916 320.474C169.556 317.774 150.187 324.689 146.895 324.969C143.603 325.249 136.221 321.002 135.352 307.749Z" fill="#78E209"/>
<path d="M402.592 27.5432C402.592 27.5432 405.478 22.7547 410.568 25.6846L413.356 22.6502C413.356 22.6502 410.444 20.7214 404.283 24.916C400.252 27.6609 402.592 27.5432 402.592 27.5432Z" fill="#F99746"/>
<path d="M399.741 32.2393C399.741 32.2393 398.772 27.0192 407.366 23.1681C407.366 23.1681 404.283 24.9164 403.639 30.2236L399.741 32.2393Z" fill="#F99746"/>
<path d="M224.6 182.96C224.6 182.96 219.875 181.099 221.73 176.097L218.592 174.058C218.592 174.058 217.304 176.958 221.991 181.842C225.058 185.038 224.6 182.96 224.6 182.96Z" fill="#5685D8"/>
<path d="M229.235 184.804C229.235 184.804 224.707 186.46 219.959 179.345C219.959 179.345 221.991 181.842 226.841 181.617L229.235 184.804Z" fill="#739AF0"/>
<path d="M238.214 117.445C238.214 117.445 240.822 115.798 241.097 113.807C241.097 113.807 243.636 113.945 244.185 114.768C244.185 114.768 243.018 118.062 241.646 118.68C241.646 118.68 238.557 118.886 238.214 117.445Z" fill="#F1A34F"/>
<path d="M67.0497 236.483C67.0497 236.483 64.2678 234.726 63.975 232.603C63.975 232.603 61.2663 232.75 60.6807 233.628C60.6807 233.628 61.9252 237.142 63.3893 237.801C63.3893 237.801 66.6838 238.021 67.0497 236.483Z" fill="#F1A34F"/>
<path d="M378.764 81.3709C378.764 81.3709 374.878 78.9169 374.469 75.9517C374.469 75.9517 370.686 76.1563 369.868 77.3833C369.868 77.3833 371.606 82.2914 373.651 83.2115C373.651 83.2115 378.252 83.5182 378.764 81.3709Z" fill="#86D1CD"/>
<path d="M522.334 135.626H446.8V353.191H522.334V135.626Z" fill="#5BAE05"/>
<path d="M446.8 135.626H247.25V353.191H446.8V135.626Z" fill="#78E209"/>
<path d="M446.8 257.283V242.055L247.249 242.055V257.283L446.8 257.283Z" fill="#5BAE05"/>
<path d="M522.334 257.283V242.055H446.8V257.283H522.334Z" fill="#78E209"/>
<path d="M384.833 137.957C384.833 137.957 429.916 108.662 460.561 118.075L454.239 123.98L457.088 133.902C457.088 133.902 423.011 122.804 383.901 139.626L384.833 137.957Z" fill="#78E209"/>
<path d="M382.312 131.322C382.312 131.322 374.358 130.361 362.502 128.731C331.028 124.401 272.075 115.344 261.494 106.962C244.867 93.7959 284.266 37.8767 301.32 30.1151C318.375 22.3604 382.312 131.322 382.312 131.322Z" fill="#78E209"/>
<path d="M507.041 61.6894C509.883 75.5426 381.141 135.391 381.141 135.391C381.141 135.391 383.483 129.059 387.293 119.14C387.293 119.14 387.299 119.131 387.304 119.123C401.223 82.9028 434.754 -1.15131 445.773 0.0119521C446.879 0.12661 448.175 0.522383 449.621 1.15614C466.544 8.60283 504.424 48.9311 507.041 61.6894Z" fill="#78E209"/>
<path d="M448.535 13.4746C440.673 27.1323 388.127 117.711 387.305 119.123C401.224 82.9028 434.755 -1.15131 445.773 0.0119521C445.773 0.0119521 447.956 -0.050472 449.621 1.15614C451.629 2.6196 452.876 5.93297 448.535 13.4746Z" fill="#5BAE05"/>
<path d="M362.523 128.73H362.502C331.028 124.401 272.075 115.343 261.494 106.962C256.716 93.5037 269.113 92.4072 278.135 91.4601C287.15 90.5131 362.523 128.73 362.523 128.73Z" fill="#5BAE05"/>
<path d="M358.301 135.609C358.301 135.609 365.518 119.191 379.722 118.282C394.557 117.333 402.984 135.609 402.984 135.609H358.301Z" fill="#5BAE05"/>
<path d="M450.001 135.626H241.2V165.55H450.001V135.626Z" fill="#5BAE05"/>
<path d="M528.701 135.626H450.001V165.55H528.701V135.626Z" fill="#5BAE05"/>
<g filter="url(#filter0_d_4041_1419)">
<path d="M365.615 133.12C365.615 133.12 324.719 120.165 297.123 128.73C265.314 138.602 267.199 177.852 267.199 177.852L274.68 174.776L284.779 179.514C284.779 179.514 286.483 137.953 312.417 132.135C334.841 127.104 365.615 133.12 365.615 133.12Z" fill="#78E209"/>
</g>
<path d="M344.635 135.626H329.407V353.169H344.635V135.626Z" fill="#5BAE05"/>
<path d="M204.848 70.3139L190.867 74.9998L204.364 115.27L218.345 110.584L204.848 70.3139Z" fill="#5BAE05"/>
<path d="M190.867 75.0013L153.932 87.3806L167.429 127.65L204.364 115.271L190.867 75.0013Z" fill="#78E209"/>
<path d="M198.4 97.5241L197.455 94.7057L160.52 107.085L161.464 109.904L198.4 97.5241Z" fill="#5BAE05"/>
<path d="M212.38 92.8396L211.436 90.0211L197.455 94.707L198.399 97.5254L212.38 92.8396Z" fill="#5BAE05"/>
<path d="M180.658 77.7284C180.658 77.7284 190.259 68.7939 198.806 68.1014L197.584 69.6839L199.002 71.2796C199.002 71.2796 189.454 71.9337 180.533 78.1081L180.658 77.7284Z" fill="#78E209"/>
<path d="M178.655 78.2027C178.655 78.2027 177.123 78.5183 174.828 78.9518C168.734 80.1029 157.261 82.0835 154.782 81.1888C150.888 79.7834 154.711 66.9894 157.386 64.4947C160.062 62.0017 178.655 78.2027 178.655 78.2027Z" fill="#78E209"/>
<path d="M197.421 57.5771C198.806 59.9648 178.69 79.0283 178.69 79.0283C178.69 79.0283 178.731 77.711 178.821 75.6389C178.821 75.6389 178.822 75.6369 178.822 75.635C179.151 68.0676 180.143 50.4302 182.255 49.962C182.467 49.9146 182.731 49.9074 183.038 49.9352C186.632 50.2635 196.145 55.3778 197.421 57.5771Z" fill="#78E209"/>
<path d="M183.601 52.2825C182.993 55.298 178.887 75.3226 178.822 75.6349C179.152 68.0675 180.143 50.4302 182.255 49.962C182.255 49.962 182.655 49.8151 183.038 49.9351C183.5 50.0814 183.937 50.6174 183.601 52.2825Z" fill="#5BAE05"/>
<path d="M174.832 78.9504L174.828 78.9517C168.734 80.1029 157.261 82.0835 154.782 81.1887C153.063 78.9942 155.29 78.0221 156.901 77.2873C158.51 76.5528 174.832 78.9504 174.832 78.9504Z" fill="#5BAE05"/>
<path d="M174.477 80.4856C174.477 80.4856 174.794 76.9993 177.366 75.9498C180.053 74.8537 182.747 77.7139 182.747 77.7139L174.477 80.4856Z" fill="#5BAE05"/>
<path d="M191.459 74.8032L152.812 87.7565L154.668 93.2952L193.316 80.3419L191.459 74.8032Z" fill="#5BAE05"/>
<path d="M206.026 69.9195L191.459 74.8018L193.316 80.3404L207.883 75.4582L206.026 69.9195Z" fill="#5BAE05"/>
<path d="M175.676 79.5715C175.676 79.5715 167.303 79.7107 162.727 83.0078C157.452 86.8082 160.235 93.9558 160.235 93.9558L161.429 92.9226L163.592 93.1729C163.592 93.1729 161.33 85.3749 165.769 82.6892C169.607 80.3668 175.676 79.5715 175.676 79.5715Z" fill="#78E209"/>
<path d="M171.956 81.3413L169.138 82.2859L182.751 122.903L185.569 121.958L171.956 81.3413Z" fill="#5BAE05"/>
<path d="M448.378 158.707C448.378 158.707 442.849 161.964 446.242 168.274C446.242 168.274 441.401 167.388 440.356 165.943C440.356 165.943 440.478 166.544 440.657 166.848C440.657 166.848 436.208 165.84 434.752 163.983C433.296 162.126 440.436 139.883 452.003 145.643C452.003 145.643 462.58 147.606 458.438 159.349C454.295 171.092 458.21 172.129 458.21 172.129C458.21 172.129 456.979 172.377 456.454 172.238C456.454 172.238 455.763 171.741 455.724 171.277C455.724 171.277 455.699 171.984 455.839 172.248C455.839 172.248 451.507 171.53 449.819 169.376C448.132 167.222 447.12 161.023 448.378 158.707Z" fill="#233862"/>
<path d="M440.395 177.612C440.388 177.615 440.383 177.617 440.375 177.62C440.341 177.615 440.348 177.612 440.395 177.612Z" fill="#FFB27D"/>
<path d="M453.832 173.744C453.994 175.2 454.189 176.506 454.275 177.128C454.469 178.522 441.239 177.614 440.395 177.612C440.983 177.356 442.778 171.663 443.346 169.492C444.035 166.858 444.576 164.013 444.576 164.013L453.918 164.603L454.474 164.637C454.129 165.911 453.884 167.114 453.714 168.23C453.692 168.38 453.67 168.533 453.65 168.681C453.481 169.92 453.631 171.946 453.832 173.744Z" fill="#FFB27D"/>
<path d="M443.287 163.071C443.287 163.071 441.773 158.267 442.079 154.584C442.298 151.954 446.042 142.983 455.042 146.801C455.042 146.801 457.688 147.788 459.786 150.189C461.454 152.098 463.601 155.836 458.173 163.092L456.595 165.611L443.287 163.071Z" fill="#233862"/>
<path d="M453.832 173.744C447.297 171.829 444.524 164.28 444.524 164.28C447.288 164.362 450.889 166.28 453.714 168.23C453.692 168.38 453.67 168.533 453.65 168.68C453.481 169.92 453.631 171.946 453.832 173.744Z" fill="#ED975D"/>
<path d="M454.294 171.092C454.294 171.092 442.487 168.173 444.418 160.849C446.349 153.524 446.125 148.214 453.745 149.768C461.365 151.321 462.087 154.501 462.037 157.102C461.987 159.704 457.415 171.662 454.294 171.092Z" fill="#FFB27D"/>
<path d="M459.147 151.006C459.147 151.006 453.653 158.744 448.377 158.707C443.101 158.669 441.309 156.779 441.309 156.779C441.309 156.779 445.895 154.772 448.072 149.726C448.072 149.726 457.801 146.274 459.147 151.006Z" fill="#233862"/>
<path d="M458.164 151.492C458.164 151.492 460.06 154.046 460.152 156.066C460.245 158.086 459.492 161.995 460.646 162.16C460.646 162.16 464.616 156.963 462.766 152.938C460.803 148.67 458.164 151.492 458.164 151.492Z" fill="#233862"/>
<path d="M458.534 151.9C458.534 151.9 453.859 160.29 446.863 161.521C446.863 161.521 454.559 157.644 456.661 151.845C458.762 146.047 458.534 151.9 458.534 151.9Z" fill="#233862"/>
<path d="M452.452 166.396C452.452 166.396 452.599 167.511 453.31 167.775C454.021 168.038 455.91 168.516 456.101 168.398C456.293 168.28 457 167.41 457 167.41C457 167.41 454.025 166.269 452.452 166.396Z" fill="white"/>
<path d="M448.043 278.443C447.893 279.07 447.743 279.69 447.596 280.304C446.706 284.003 445.877 287.434 445.355 290.304C444.677 294.039 444.517 296.818 445.407 297.986C449.074 302.794 445.407 340.946 445.407 340.946L441.234 345.245C441.234 345.245 433.979 307.577 432.012 301.675C431.116 298.992 429.813 287.532 428.662 275.833C428.603 275.248 428.546 274.663 428.49 274.077C428.291 272.032 428.099 269.993 427.914 268.003C426.882 256.934 426.109 247.456 426.109 247.456C426.109 247.456 433.804 242.046 440.796 241.444C444.915 241.085 448.788 242.395 450.702 247.456C453.488 254.819 450.665 267.534 448.043 278.443Z" fill="#FFB27D"/>
<path d="M448.043 278.443C442.326 274.314 434.282 266.966 431.362 254.92C430.804 248.932 435.526 243.242 440.796 241.444C444.915 241.085 448.788 242.396 450.702 247.457C453.488 254.819 450.665 267.534 448.043 278.443Z" fill="#ED975D"/>
<path d="M468.894 205.69L496.993 212.948V216.228C496.993 216.228 469.031 215.901 467.227 212.786C465.423 209.671 468.894 205.69 468.894 205.69Z" fill="#FFB27D"/>
<path d="M496.992 313.833L495.678 319.256C495.678 319.256 457.669 299.624 452.753 295.854C450.778 294.339 448.169 286.113 445.751 276.807C442.151 262.937 438.979 246.67 438.979 246.67C438.979 246.67 444.308 226.177 458.571 238.719C467.107 246.224 465.779 260.687 464.845 271.936C464.222 279.483 463.775 285.584 466.605 287.166C472.127 290.247 488.328 304.442 493.455 314.207L496.992 313.833Z" fill="#FFB27D"/>
<path d="M432.514 222.74C422.587 220.214 411.675 204.813 411.675 204.813L414.47 202.389C417.364 205.8 429.396 211.677 429.396 211.677C429.331 208.554 429.413 205.707 429.61 203.115C430.945 185.499 437.586 179.629 439.399 178.342C439.691 178.133 439.859 178.045 439.859 178.045C439.859 178.045 439.866 178.173 439.876 178.416C439.903 178.939 439.951 179.994 440 181.441C440.368 192.223 440.809 224.853 432.514 222.74Z" fill="#FFB27D"/>
<path d="M440.374 201.598C439.86 214.165 437.98 226.61 432.508 225.809C425.802 224.83 424.055 218.57 423.699 213.917C423.478 211.021 423.796 208.747 423.796 208.747C423.796 208.747 427.097 208.731 427.631 208.239C430.167 205.898 429.414 182.932 430.669 180.548C431.924 178.163 440.066 176.632 440.066 176.632C440.066 176.632 440.887 189.176 440.374 201.598Z" fill="white"/>
<path d="M440.374 201.598C439.86 214.165 437.98 226.61 432.508 225.809C425.802 224.83 424.055 218.57 423.699 213.917C425.345 213.834 428.244 213.433 429.396 211.676C431.045 209.161 436.191 192.972 436.191 192.972C436.191 192.972 438.214 196.606 440.374 201.598Z" fill="#DFEBFD"/>
<path d="M482.683 205.69C484.501 208.271 483.5 213.278 479.687 217.308C477.319 219.81 474.113 221.291 468.894 220.522C466.619 220.186 460.263 216.598 459.594 212.222C459.475 211.428 459.407 210.965 459.407 210.965C459.407 210.965 456.514 213.862 456.406 214.41C456.357 214.656 456.107 216.845 456.068 217.144C456.023 217.506 456.28 218.836 456.28 218.836C456.28 218.836 442.455 224.882 431.026 217.997C431.026 217.997 427.767 190.07 430.107 185.423C431.27 183.115 437.794 178.618 440.066 176.632C440.576 176.185 441.095 174.839 440.954 173.971C440.839 173.238 441.682 172.003 442.389 172.228C443.755 172.665 447.62 174.578 450.34 173.848C451.695 173.488 453.413 171.922 454.726 172.281C456.331 172.719 454.636 176.582 455.545 176.632C456.799 176.694 463.57 178.049 464.139 179.141C464.336 179.521 466.281 184.674 468.72 191.492C468.72 191.492 468.722 191.497 468.724 191.51C473.302 204.301 480.015 201.901 482.683 205.69Z" fill="white"/>
<path d="M459.407 210.965C459.407 210.965 459.07 200.312 458.21 200.441C457.349 200.572 444.93 212.526 447.881 217.307C450.832 222.09 459.407 210.965 459.407 210.965Z" fill="#DFEBFD"/>
<path d="M468.894 254.645C468.894 254.645 464.107 256.123 457.056 257.099C448.325 258.306 436.12 258.741 425.221 254.645C425.221 254.645 424.322 238.426 426.905 229.971C429.488 221.513 430.695 217.468 430.695 217.468C430.695 217.468 441.042 220.063 451.551 218.051C453.028 217.77 454.506 217.396 455.959 216.912C455.959 216.912 462.441 230.675 464.224 236.573C466.007 242.47 468.894 254.645 468.894 254.645Z" fill="#2B478B"/>
<path d="M468.894 254.645C468.894 254.645 464.107 256.123 457.056 257.099C444.126 249.767 450.431 218.914 450.431 218.914C450.815 218.603 451.189 218.315 451.552 218.051C453.028 217.77 454.506 217.396 455.959 216.912C455.959 216.912 462.442 230.675 464.225 236.573C466.007 242.47 468.894 254.645 468.894 254.645Z" fill="#233862"/>
<path d="M441.683 220.521C434.018 220.521 430.858 217.883 430.625 217.704L430.129 214.094C430.202 214.148 440.488 220.324 456.405 214.409L456.067 217.144C449.946 219.419 445.665 220.521 441.683 220.521Z" fill="#B64C41"/>
<path d="M496.993 212.948C496.993 212.948 502.148 210.408 504.197 210.162C506.247 209.916 509.69 209.834 509.69 210.162C509.69 210.49 506.001 212.782 505.017 212.948C504.033 213.114 502.148 214.507 502.721 214.671C503.295 214.835 506.329 214.138 506.369 214.671C506.41 215.204 504.525 215.532 504.197 215.942C503.869 216.352 502.721 216.843 500.877 216.597C499.033 216.351 496.993 216.228 496.993 216.228V212.948Z" fill="#FFB27D"/>
<path d="M414.465 202.38L411.663 204.824C411.663 204.824 406.684 201.188 406.446 199.697V199.548C406.446 197.998 409.606 194.778 412.229 194.659C412.497 194.659 412.736 194.719 412.944 194.838C414.342 195.712 414.508 199.354 414.497 201.239C414.492 201.926 414.465 202.38 414.465 202.38Z" fill="#FFB27D"/>
<path d="M496.991 313.833L495.678 319.256C495.678 319.256 457.668 299.624 452.752 295.854C450.778 294.339 448.169 286.113 445.751 276.807C448.995 277.474 456.001 277.828 464.844 271.936C464.222 279.483 463.775 285.584 466.605 287.166C472.126 290.247 488.328 304.442 493.455 314.207L496.991 313.833Z" fill="#2B478B"/>
<path d="M504.505 315.938C504.505 315.938 504.493 315.937 504.471 315.931C504.301 315.888 503.519 315.63 503.001 314.387C502.66 313.568 502.557 312.896 502.244 312.086L500.96 309.871C499.618 308.103 499.147 308.517 499.147 308.517C499.147 308.517 498.796 308.967 498.278 309.561C497.421 310.54 496.108 311.906 495.179 312.257C494.518 312.504 494.105 312.915 493.851 313.296C493.527 313.774 493.455 314.206 493.455 314.206C493.455 314.206 496.211 314.687 495.971 316.045C495.503 318.673 495.614 319.152 495.661 319.238L495.678 319.255C495.678 319.255 500.379 321.716 501.881 322.199C504.556 323.055 505.953 324.874 506.82 325.704C507.171 326.041 507.657 326.196 508.136 326.119C508.841 326.007 509.756 325.781 509.957 325.349L504.505 315.938Z" fill="#233862"/>
<path d="M445.407 297.986C449.074 302.794 445.407 340.947 445.407 340.947L441.234 345.245C441.234 345.245 433.979 307.577 432.012 301.675C431.116 298.992 429.813 287.532 428.662 275.833C432.14 277.385 440.624 280.764 447.596 280.304C446.705 284.003 445.877 287.434 445.355 290.304C444.677 294.039 444.517 296.818 445.407 297.986Z" fill="#233862"/>
<path d="M449.601 347.157L447.35 348.376C446.531 348.666 445.856 348.749 445.028 349.067C443.77 349.548 442.885 350.496 442.843 350.666C442.207 353.248 441.306 353.084 441.306 353.084L432.261 353.169C431.834 352.956 432.557 351.13 432.904 350.789C433.759 349.947 436.318 350.371 437.252 347.722C437.778 346.233 440.373 341.606 440.373 341.606L440.392 341.59C440.479 341.544 440.96 341.448 443.574 341.992C444.925 342.271 445.485 339.53 445.485 339.53C445.485 339.53 445.915 339.615 446.384 339.952C446.757 340.217 447.156 340.643 447.384 341.31C447.707 342.249 449.035 343.601 449.989 344.485C450.567 345.021 451.007 345.384 451.007 345.384C451.007 345.384 451.407 345.867 449.601 347.157Z" fill="#233862"/>
<path d="M358.674 242.821H320.26V353.466H358.674V242.821Z" fill="#6B6B6B"/>
<path d="M320.26 242.821H218.777V353.466H320.26V242.821Z" fill="#353535"/>
<path d="M320.26 304.691V296.947H218.777V304.691H320.26Z" fill="#525252"/>
<path d="M358.674 304.691V296.947H320.26V304.691H358.674Z" fill="#353535"/>
<path d="M292.807 241.12C292.807 241.12 323.919 226.998 345.606 232.364L341.276 235.261L343.459 240.377C343.459 240.377 319.331 234.088 292.183 241.954L292.807 241.12Z" fill="#353535"/>
<path d="M287.477 240.577C287.477 240.577 283.432 240.088 277.403 239.259C261.397 237.057 231.416 232.451 226.034 228.188C217.578 221.493 237.615 193.054 246.288 189.107C254.961 185.163 287.477 240.577 287.477 240.577Z" fill="#6B6B6B"/>
<path d="M350.91 205.165C352.355 212.21 286.882 242.646 286.882 242.646C286.882 242.646 288.073 239.426 290.011 234.382C290.011 234.382 290.014 234.377 290.016 234.373C297.095 215.953 314.148 173.206 319.751 173.798C320.314 173.856 320.973 174.057 321.708 174.38C330.314 178.167 349.579 198.676 350.91 205.165Z" fill="#6B6B6B"/>
<path d="M321.156 180.644C317.157 187.59 290.434 233.655 290.016 234.373C297.095 215.953 314.147 173.206 319.751 173.798C319.751 173.798 320.861 173.766 321.708 174.38C322.729 175.124 323.363 176.809 321.156 180.644Z" fill="#353535"/>
<path d="M277.413 239.259H277.403C261.396 237.057 231.415 232.451 226.034 228.188C223.604 221.344 229.909 220.787 234.497 220.305C239.082 219.823 277.413 239.259 277.413 239.259Z" fill="#353535"/>
<path d="M275.266 242.757C275.266 242.757 278.936 234.408 286.16 233.945C293.705 233.462 297.99 242.757 297.99 242.757H275.266Z" fill="#353535"/>
<path d="M321.888 242.821H215.7V258.039H321.888V242.821Z" fill="#525252"/>
<path d="M361.912 242.821H321.888V258.039H361.912V242.821Z" fill="#353535"/>
<path d="M278.973 241.547C278.973 241.547 258.175 234.959 244.14 239.314C227.964 244.335 228.922 264.296 228.922 264.296L232.727 262.731L237.863 265.141C237.863 265.141 238.729 244.005 251.919 241.046C263.323 238.487 278.973 241.547 278.973 241.547Z" fill="#353535"/>
<path d="M268.303 242.821H260.559V354.42H268.303V242.821Z" fill="#525252"/>
<path d="M95.8836 197.389C95.8836 197.389 124.488 218.351 131.486 217.846C138.483 217.341 163.262 202.051 163.262 202.051L158.02 195.818C158.02 195.818 135.578 204.133 131.469 201.84C127.36 199.548 111.31 180.091 104.576 181.129C97.8421 182.168 91.1889 189.852 95.8836 197.389Z" fill="#233862"/>
<path d="M79.0145 354.897H70.4635C69.3869 354.312 68.4278 352.974 68.1248 350.979C67.7071 348.224 64.6196 346.722 63.9514 344.468C63.2847 342.216 66.7064 339.045 66.7064 339.045L67.2788 338.307L67.8742 337.542L73.5497 338.878C73.5497 338.878 73.6904 340.23 73.7755 341.952C73.8375 343.194 73.8698 344.629 73.8003 345.888C73.6331 348.892 74.6401 352.128 77.31 352.713C79.2837 353.145 79.1955 354.315 79.0145 354.897Z" fill="#233862"/>
<path d="M128.64 354.897H109.085C108.145 353.749 108.491 349.514 108.633 348.131C108.663 347.853 108.683 347.691 108.683 347.691C108.683 347.691 115.361 342.349 116.278 346.439C116.306 346.568 116.34 346.693 116.377 346.817C117.532 350.642 122.716 352.381 125.709 352.865C127.655 353.18 128.374 354.192 128.64 354.897Z" fill="#233862"/>
<path d="M124.914 245.742C124.914 245.742 123.9 258.393 122.708 273.6C121.088 294.258 119.141 319.632 118.948 324.439C118.615 332.786 117.278 346.138 117.278 346.138C117.278 346.138 114.108 349.31 107.764 347.973C107.764 347.973 102.111 328.913 100.496 308.746C100.471 308.416 100.446 308.083 100.421 307.75C98.9184 287.22 96.5825 243.99 96.5825 243.99L124.914 245.742Z" fill="#78E209"/>
<path d="M124.914 245.742C124.914 245.742 123.9 258.393 122.708 273.6L100.496 308.746C100.471 308.416 100.446 308.083 100.421 307.75C98.9189 287.22 96.583 243.99 96.583 243.99L124.914 245.742Z" fill="#5BAE05"/>
<path d="M120.284 247.245C120.284 247.245 102.007 293.061 89.9898 314.592C77.9724 336.124 74.2169 342.132 74.2169 342.132C74.2169 342.132 67.3318 339.378 66.7061 337.501C66.7061 337.501 71.3017 295.934 79.3494 285.801C83.8969 280.075 89.2388 262.893 89.4891 256.884C89.7395 250.875 91.1165 238.983 91.1165 238.983L120.284 247.245Z" fill="#78E209"/>
<path d="M108.236 182.01C101.416 185.102 88.4189 180.542 88.4189 180.542C88.4189 180.542 94.3651 174.847 92.7933 164.687L98.8084 168.444L102.894 170.996C102.894 170.996 103.092 172.767 103.059 175.917C103.05 176.745 103.025 177.671 102.976 178.685C106.221 179.989 108.236 182.01 108.236 182.01Z" fill="#FFB27D"/>
<path d="M102.894 170.996C102.894 170.996 103.092 172.767 103.059 175.917C98.847 175.706 93.3623 169.601 93.3623 169.601C95.3899 168.741 97.2167 168.41 98.8084 168.444L102.894 170.996Z" fill="#ED975D"/>
<path d="M105.043 170.567C105.043 170.567 93.5649 173.924 91.5843 166.744C89.6035 159.564 86.7882 155.162 94.0327 152.715C101.277 150.268 103.463 152.613 104.707 154.849C105.951 157.085 107.977 169.508 105.043 170.567Z" fill="#FFB27D"/>
<path d="M125.627 241.23C125.985 244.539 126.151 246.6 126.071 246.682C125.879 246.886 125.645 247.022 125.36 247.056C122.694 247.342 115.107 249.755 108.456 249.873C102.852 250.009 97.7523 248.959 92.2028 247.232C91.4669 247.004 89.7529 246.338 89.6966 245.553C89.6162 244.696 89.5522 243.443 89.4699 241.867C89.1881 236.389 88.7119 226.965 86.7772 216.257C86.422 214.265 86.1238 212.278 85.8799 210.319C84.0634 195.712 85.4126 182.51 90.7101 177.456C91.1663 177.04 94.3982 178.164 97.37 179.21C100.118 180.178 102.725 180.006 105.115 179.215L107.826 181.085C111.144 183.495 114.864 186.866 116.972 192.411C118.768 197.13 120.533 205.815 122.019 214.856C122.692 218.956 123.336 223.092 123.846 227.029L123.863 227.17C123.946 227.557 123.997 227.985 124.044 228.376C124.139 229.075 124.23 229.762 124.319 230.439C124.871 234.645 125.318 238.396 125.627 241.23Z" fill="#353535"/>
<path d="M91.4894 166.042C91.4894 166.042 92.667 165.696 92.2736 164.064C91.8804 162.432 91.6218 160.268 93.0166 160.509C94.4113 160.75 94.6079 161.819 95.0852 161.123C95.5625 160.428 95.2527 157.775 99.2354 157.108C103.218 156.44 105.014 157.638 106.777 156.595C108.541 155.552 108.299 152.721 108.299 152.721C108.299 152.721 107.891 153.792 107.13 154.208C107.13 154.208 109.725 149.584 105.776 147.103C101.828 144.623 98.3897 146.973 96.3228 147.35C91.7697 148.18 88.8399 148.812 87.7046 152.007C86.5698 155.201 88.1966 163.495 91.4894 166.042Z" fill="#2B478B"/>
<path d="M125.627 241.23C125.064 241.334 115.276 243.091 108.621 238.708C101.77 234.195 93.7432 207.438 93.7432 207.438C93.7432 207.438 109.132 224.553 109.431 225.228C109.681 225.796 120.779 229.324 124.319 230.439C124.872 234.645 125.318 238.396 125.627 241.23Z" fill="#252424"/>
<path d="M205.378 155.364L129.252 156.445L130.334 232.571L206.46 231.49L205.378 155.364Z" fill="#5BAE05"/>
<path d="M189.133 155.595L113.007 156.676L114.088 232.802L190.214 231.721L189.133 155.595Z" fill="#78E209"/>
<path d="M130.002 183.358C129.921 177.706 133.795 173.084 139.618 173.001C145.383 172.919 149.329 177.373 149.41 183.081C149.49 188.676 145.617 193.355 139.794 193.438C134.029 193.52 130.083 189.066 130.002 183.358ZM163.028 173.125L169.821 173.028L141.22 213.401L134.427 213.498L163.028 173.125ZM143.416 183.167C143.378 180.484 141.861 178.164 139.577 178.197C137.18 178.231 135.957 180.533 135.996 183.273C136.034 185.955 137.551 188.275 139.835 188.242C142.232 188.208 143.454 185.85 143.416 183.167ZM154.838 203.444C154.758 197.793 158.632 193.17 164.454 193.087C170.22 193.005 174.166 197.46 174.247 203.168C174.326 208.762 170.453 213.442 164.631 213.525C158.865 213.607 154.919 209.153 154.838 203.444ZM168.253 203.253C168.215 200.57 166.697 198.251 164.414 198.284C162.016 198.318 160.793 200.619 160.832 203.359C160.87 206.042 162.388 208.361 164.671 208.329C167.069 208.295 168.291 205.936 168.253 203.253Z" fill="white"/>
<path d="M151.355 235.207C148.786 235.159 145.489 234.054 144.433 233.529C142.647 232.64 141.737 231.779 141.737 231.779L142.008 230.087L142.333 228.067C142.333 228.067 142.531 228.035 142.861 228.001C143.189 227.966 143.652 227.931 144.175 227.922C144.175 227.922 145.021 228.179 145.72 227.553C146.418 226.929 147.706 226.505 148.68 226.739C149.653 226.973 151.747 226.755 151.813 227.096C151.978 227.919 148.927 227.769 148.571 228.286C148.248 228.753 148.542 229.069 148.602 229.126C148.606 229.129 148.609 229.133 148.614 229.136C150.4 230.937 156.547 231.59 156.301 233.021C156.208 233.555 152.442 235.228 151.355 235.207Z" fill="#FFB27D"/>
<path d="M89.0562 197.187C89.0562 197.187 103.136 229.735 109.428 232.838C115.721 235.94 144.433 233.529 144.433 233.529L144.622 227.973C144.622 227.973 119.893 223.075 117.507 219.02C115.121 214.965 111.112 190.062 104.777 187.554C98.4418 185.045 88.8162 188.311 89.0562 197.187Z" fill="#525252"/>
<path d="M38.4581 328.896C38.1465 329.086 37.8298 329.27 37.5077 329.448C37.3985 329.508 37.2897 329.567 37.1804 329.624C36.9312 329.757 36.6819 329.885 36.4305 330.01C24.386 335.925 9.69486 331.385 3.14679 319.507C-3.09848 308.178 0.258431 294.146 10.5059 286.778C11.3232 286.19 12.1835 285.644 13.0869 285.147C13.4111 284.968 13.7382 284.797 14.0666 284.635C14.3854 284.476 14.7075 284.324 15.0304 284.181C16.0201 283.739 17.0269 283.368 18.0425 283.063C19.5528 282.609 21.0859 282.302 22.6221 282.14C27.3864 281.635 32.1801 282.506 36.4302 284.585C40.9402 286.79 44.8395 290.357 47.4476 295.087C54.0134 306.999 49.9679 321.896 38.4581 328.896Z" fill="#FFB93E"/>
<path d="M25.462 330.608C17.0557 330.608 9.31517 326.039 5.26097 318.684C2.28941 313.293 1.59496 307.068 3.30551 301.155C5.01606 295.243 8.92676 290.35 14.3172 287.378C17.7201 285.502 21.5602 284.511 25.4221 284.511C33.8283 284.511 41.5689 289.08 45.6231 296.434C48.5947 301.825 49.2891 308.05 47.5786 313.963C45.868 319.876 41.9573 324.769 36.5669 327.74C33.1642 329.616 29.3241 330.608 25.462 330.608ZM25.4221 285.885C21.7916 285.885 18.1811 286.818 14.9809 288.582C9.91187 291.376 6.23438 295.977 4.62614 301.537C3.01789 307.097 3.6707 312.951 6.46497 318.02C10.2775 324.936 17.5566 329.233 25.462 329.233C29.0924 329.233 32.703 328.3 35.9032 326.536C40.9722 323.742 44.6497 319.141 46.2579 313.581C47.8662 308.021 47.2134 302.167 44.4191 297.098C40.6066 290.182 33.3274 285.885 25.4221 285.885Z" fill="#FFA412"/>
<path d="M25.442 290.592L30.5241 300.889L41.8879 302.54L33.6647 310.556L35.606 321.874L25.442 316.53L15.2778 321.874L17.219 310.556L8.99609 302.54L20.3598 300.889L25.442 290.592Z" fill="#FFA412"/>
<path d="M366.705 27.4676C366.529 27.5749 366.351 27.6787 366.169 27.7791C366.107 27.8131 366.046 27.8465 365.984 27.8788C365.843 27.9538 365.703 28.0259 365.561 28.0962C358.763 31.4347 350.472 28.8723 346.776 22.1689C343.251 15.7751 345.146 7.85508 350.929 3.6964C351.391 3.36478 351.876 3.05699 352.386 2.77609C352.569 2.67508 352.754 2.57863 352.939 2.48717C353.119 2.39743 353.301 2.31161 353.483 2.23076C354.042 1.98172 354.61 1.77193 355.183 1.60005C356.036 1.34321 356.901 1.17045 357.768 1.07899C360.457 0.794186 363.162 1.28532 365.561 2.45899C368.106 3.70332 370.307 5.71645 371.779 8.3863C375.485 15.1088 373.201 23.5164 366.705 27.4676Z" fill="#FFB93E"/>
<path d="M359.371 28.4335C354.626 28.4335 350.257 25.8549 347.969 21.7038C346.292 18.6616 345.9 15.1482 346.865 11.8108C347.831 8.47377 350.038 5.71202 353.08 4.03506C355.001 2.97627 357.168 2.41663 359.348 2.41663C364.092 2.41663 368.461 4.99522 370.749 9.14631C372.426 12.1888 372.818 15.7022 371.853 19.0394C370.888 22.3766 368.681 25.1381 365.638 26.8151C363.718 27.8739 361.55 28.4335 359.371 28.4335ZM359.348 3.19256C357.299 3.19256 355.261 3.71882 353.455 4.71432C350.594 6.29135 348.519 8.88819 347.611 12.0262C346.703 15.1642 347.072 18.4681 348.649 21.3289C350.801 25.2324 354.909 27.6572 359.371 27.6572C361.42 27.6572 363.457 27.1309 365.264 26.1354C368.124 24.5584 370.2 21.9616 371.108 18.8235C372.016 15.6855 371.647 12.3817 370.07 9.52085C367.918 5.6175 363.81 3.19256 359.348 3.19256Z" fill="#FFA412"/>
<path d="M359.359 5.84863L362.227 11.6604L368.641 12.5924L364 17.1163L365.096 23.5038L359.359 20.488L353.623 23.5038L354.718 17.1163L350.077 12.5924L356.491 11.6604L359.359 5.84863Z" fill="#FFA412"/>
<path d="M614.179 354.755H17.6773C17.3047 354.755 17 354.45 17 354.078V353.847C17 353.474 17.3047 353.169 17.6773 353.169H614.179C614.551 353.169 614.856 353.474 614.856 353.847V354.078C614.856 354.45 614.551 354.755 614.179 354.755Z" fill="#2E3552"/>
<path d="M387.881 213.985C387.881 213.985 385.052 215.914 381.907 215.597C379.573 215.361 377.273 213.2 377.184 213.056L375.323 216.291C375.323 216.291 379.578 218.872 383.225 218.165C384.343 217.948 386.155 216.838 386.974 216.006C387.876 215.089 387.881 213.985 387.881 213.985Z" fill="#6BB7BF"/>
<path d="M387.804 207.246L392.479 205.309C392.479 205.309 391.838 215.027 383.808 217.996C383.808 217.996 388.88 211.344 387.804 207.246Z" fill="#86D1CD"/>
<path d="M420.607 323.404C420.607 323.404 422.648 325.716 424.656 325.671C424.656 325.671 424.924 328.2 424.198 328.872C424.198 328.872 420.761 328.244 419.933 326.987C419.933 326.987 419.239 323.971 420.607 323.404Z" fill="#F99746"/>
<path d="M388.576 291.61C388.576 291.61 386.727 289.366 386.754 286.682C386.774 284.689 388.425 282.578 388.539 282.492L385.66 281.166C385.66 281.166 383.805 284.964 384.683 287.994C384.952 288.923 386.03 290.37 386.797 290.999C387.641 291.691 388.576 291.61 388.576 291.61Z" fill="#CDE0FB"/>
<path d="M394.269 291.027L396.267 294.833C396.267 294.833 387.998 295.037 384.87 288.474C384.87 288.474 390.886 292.253 394.269 291.027Z" fill="#CDE0FB"/>
<defs>
<filter id="filter0_d_4041_1419" x="263.178" y="125.803" width="106.437" height="61.7113" filterUnits="userSpaceOnUse" color-interpolation-filters="sRGB">
<feFlood flood-opacity="0" result="BackgroundImageFix"/>
<feColorMatrix in="SourceAlpha" type="matrix" values="0 0 0 0 0 0 0 0 0 0 0 0 0 0 0 0 0 0 127 0" result="hardAlpha"/>
<feOffset dy="4"/>
<feGaussianBlur stdDeviation="2"/>
<feComposite in2="hardAlpha" operator="out"/>
<feColorMatrix type="matrix" values="0 0 0 0 0 0 0 0 0 0 0 0 0 0 0 0 0 0 0.15 0"/>
<feBlend mode="normal" in2="BackgroundImageFix" result="effect1_dropShadow_4041_1419"/>
<feBlend mode="normal" in="SourceGraphic" in2="effect1_dropShadow_4041_1419" result="shape"/>
</filter>
</defs>
</svg>
