<svg width="1728" height="91" viewBox="0 0 1728 91" fill="none" xmlns="http://www.w3.org/2000/svg">
<g clip-path="url(#clip0_4041_1108)">
<rect width="1728" height="6899" transform="translate(0 -6301)" fill="white"/>
<path d="M451 31.9536C377.8 19.9721 288.167 18.6411 252.5 19.4733C211.387 15.0464 85.1917 26.1432 0 39V578.107H1517V30.4559C1388 -11.9783 1187.5 -2.49305 1068.5 30.4559C973.3 56.815 921.833 62.0735 908 61.4079C789 73.8885 542.5 46.9303 451 31.9536Z" fill="#69CD01"/>
<path d="M161.093 70.3556C100.658 83.1374 28.5165 86 0 85.8336V598.107H1728V50.3834C1598.93 7.94362 1398.31 17.4302 1279.24 50.3834C1183.99 76.7461 1132.49 82.0053 1118.65 81.3396C999.579 93.8219 752.936 66.8601 661.383 51.8813C588.14 39.8983 498.455 38.5672 462.768 39.3994C411.738 33.9072 236.637 54.3782 161.093 70.3556Z" fill="#232229"/>
</g>
<defs>
<clipPath id="clip0_4041_1108">
<rect width="1728" height="6899" fill="white" transform="translate(0 -6301)"/>
</clipPath>
</defs>
</svg>
